<svg version="1.1" viewBox="0 0 750 750" xml:space="preserve" xmlns="http://www.w3.org/2000/svg" xmlns:xlink="http://www.w3.org/1999/xlink"><defs><marker id="RoundedArrow" overflow="visible" markerHeight="1" markerWidth="1" orient="auto-start-reverse" preserveAspectRatio="xMidYMid" viewBox="0 0 1 1"><path transform="scale(.7)" d="m-.211146-4.10557 6.42229 3.21115a1 1 90 010 1.78885l-6.42229 3.21115a1.23607 1.23607 31.7175 01-1.78885-1.10557v-6a1.23607 1.23607 148.283 011.78885-1.10557z" fill="context-stroke" fill-rule="evenodd"/></marker><linearGradient id="linearGradient1279" x1="345.782" x2="345.782" y1="542.501" y2="690.939" gradientTransform="translate(32,20)" gradientUnits="userSpaceOnUse"><stop stop-color="#e6e4d9" offset="0"/><stop stop-color="#e6e4d9" stop-opacity="0" offset="1"/></linearGradient><linearGradient id="linearGradient1281" x1="290" x2="290" y1="571" y2="678" gradientTransform="translate(32,20)" gradientUnits="userSpaceOnUse"><stop stop-color="#d14d41" offset="0"/><stop stop-color="#d14d41" stop-opacity="0" offset="1"/></linearGradient></defs><rect width="750" height="750" fill="#ffffff" stroke-linecap="round" stroke-linejoin="round" stroke-miterlimit="10" stroke-width="4.04019"/><rect x="683" y="392" width="18" height="36" rx="5" fill="none" stroke="black" stroke-width="2"/><rect x="507" y="151" width="18" height="72" rx="5" fill="none" stroke="black" stroke-width="2"/><g><text x="275.61102" y="43.935997" fill="black" font-family="'Source Serif 4'" font-size="28px" font-weight="700"><tspan fill="black" font-family="'Source Serif 4'" font-size="28px" font-weight="500">Column Sparsity</tspan></text><path d="m36 64c-2.216 0-4 1.784-4 4v8c0 2.216 1.784 4 4 4h8c2.216 0 4-1.784 4-4v-8c0-2.216-1.784-4-4-4zm106 0c-2.216 0-4 1.784-4 4v8c0 2.216 1.784 4 4 4h8c2.216 0 4-1.784 4-4v-8c0-2.216-1.784-4-4-4zm106 0c-2.216 0-4 1.784-4 4v8c0 2.216 1.784 4 4 4h8c2.216 0 4-1.784 4-4v-8c0-2.216-1.784-4-4-4zm106 0c-2.216 0-4 1.784-4 4v8c0 2.216 1.784 4 4 4h8c2.216 0 4-1.784 4-4v-8c0-2.216-1.784-4-4-4zm34 0c-2.216 0-4 1.784-4 4v8c0 2.216 1.784 4 4 4h8c2.216 0 4-1.784 4-4v-8c0-2.216-1.784-4-4-4zm18 0c-2.216 0-4 1.784-4 4v8c0 2.216 1.784 4 4 4h8c2.216 0 4-1.784 4-4v-8c0-2.216-1.784-4-4-4zm70 0c-2.216 0-4 1.784-4 4v8c0 2.216 1.784 4 4 4h8c2.216 0 4-1.784 4-4v-8c0-2.216-1.784-4-4-4zm36 0c-2.216 0-4 1.784-4 4v8c0 2.216 1.784 4 4 4h8c2.216 0 4-1.784 4-4v-8c0-2.216-1.784-4-4-4zm52 0c-2.216 0-4 1.784-4 4v8c0 2.216 1.784 4 4 4h8c2.216 0 4-1.784 4-4v-8c0-2.216-1.784-4-4-4zm54 0c-2.216 0-4 1.784-4 4v8c0 2.216 1.784 4 4 4h8c2.216 0 4-1.784 4-4v-8c0-2.216-1.784-4-4-4zm52 0c-2.216 0-4 1.784-4 4v8c0 2.216 1.784 4 4 4h8c2.216 0 4-1.784 4-4v-8c0-2.216-1.784-4-4-4zm18 0c-2.216 0-4 1.784-4 4v8c0 2.216 1.784 4 4 4h8c2.216 0 4-1.784 4-4v-8c0-2.216-1.784-4-4-4zm-652 18c-2.216 0-4 1.784-4 4v8c0 2.216 1.784 4 4 4h8c2.216 0 4-1.784 4-4v-8c0-2.216-1.784-4-4-4zm106 0c-2.216 0-4 1.784-4 4v8c0 2.216 1.784 4 4 4h8c2.216 0 4-1.784 4-4v-8c0-2.216-1.784-4-4-4zm106 0c-2.216 0-4 1.784-4 4v8c0 2.216 1.784 4 4 4h8c2.216 0 4-1.784 4-4v-8c0-2.216-1.784-4-4-4zm106 0c-2.216 0-4 1.784-4 4v8c0 2.216 1.784 4 4 4h8c2.216 0 4-1.784 4-4v-8c0-2.216-1.784-4-4-4zm34 0c-2.216 0-4 1.784-4 4v8c0 2.216 1.784 4 4 4h8c2.216 0 4-1.784 4-4v-8c0-2.216-1.784-4-4-4zm18 0c-2.216 0-4 1.784-4 4v8c0 2.216 1.784 4 4 4h8c2.216 0 4-1.784 4-4v-8c0-2.216-1.784-4-4-4zm70 0c-2.216 0-4 1.784-4 4v8c0 2.216 1.784 4 4 4h8c2.216 0 4-1.784 4-4v-8c0-2.216-1.784-4-4-4zm36 0c-2.216 0-4 1.784-4 4v8c0 2.216 1.784 4 4 4h8c2.216 0 4-1.784 4-4v-8c0-2.216-1.784-4-4-4zm52 0c-2.216 0-4 1.784-4 4v8c0 2.216 1.784 4 4 4h8c2.216 0 4-1.784 4-4v-8c0-2.216-1.784-4-4-4zm54 0c-2.216 0-4 1.784-4 4v8c0 2.216 1.784 4 4 4h8c2.216 0 4-1.784 4-4v-8c0-2.216-1.784-4-4-4zm52 0c-2.216 0-4 1.784-4 4v8c0 2.216 1.784 4 4 4h8c2.216 0 4-1.784 4-4v-8c0-2.216-1.784-4-4-4zm18 0c-2.216 0-4 1.784-4 4v8c0 2.216 1.784 4 4 4h8c2.216 0 4-1.784 4-4v-8c0-2.216-1.784-4-4-4zm-652 18c-2.216 0-4 1.784-4 4v8c0 2.216 1.784 4 4 4h8c2.216 0 4-1.784 4-4v-8c0-2.216-1.784-4-4-4zm106 0c-2.216 0-4 1.784-4 4v8c0 2.216 1.784 4 4 4h8c2.216 0 4-1.784 4-4v-8c0-2.216-1.784-4-4-4zm106 0c-2.216 0-4 1.784-4 4v8c0 2.216 1.784 4 4 4h8c2.216 0 4-1.784 4-4v-8c0-2.216-1.784-4-4-4zm106 0c-2.216 0-4 1.784-4 4v8c0 2.216 1.784 4 4 4h8c2.216 0 4-1.784 4-4v-8c0-2.216-1.784-4-4-4zm34 0c-2.216 0-4 1.784-4 4v8c0 2.216 1.784 4 4 4h8c2.216 0 4-1.784 4-4v-8c0-2.216-1.784-4-4-4zm18 0c-2.216 0-4 1.784-4 4v8c0 2.216 1.784 4 4 4h8c2.216 0 4-1.784 4-4v-8c0-2.216-1.784-4-4-4zm70 0c-2.216 0-4 1.784-4 4v8c0 2.216 1.784 4 4 4h8c2.216 0 4-1.784 4-4v-8c0-2.216-1.784-4-4-4zm36 0c-2.216 0-4 1.784-4 4v8c0 2.216 1.784 4 4 4h8c2.216 0 4-1.784 4-4v-8c0-2.216-1.784-4-4-4zm52 0c-2.216 0-4 1.784-4 4v8c0 2.216 1.784 4 4 4h8c2.216 0 4-1.784 4-4v-8c0-2.216-1.784-4-4-4zm54 0c-2.216 0-4 1.784-4 4v8c0 2.216 1.784 4 4 4h8c2.216 0 4-1.784 4-4v-8c0-2.216-1.784-4-4-4zm52 0c-2.216 0-4 1.784-4 4v8c0 2.216 1.784 4 4 4h8c2.216 0 4-1.784 4-4v-8c0-2.216-1.784-4-4-4zm18 0c-2.216 0-4 1.784-4 4v8c0 2.216 1.784 4 4 4h8c2.216 0 4-1.784 4-4v-8c0-2.216-1.784-4-4-4zm-652 18c-2.216 0-4 1.784-4 4v8c0 2.216 1.784 4 4 4h8c2.216 0 4-1.784 4-4v-8c0-2.216-1.784-4-4-4zm106 0c-2.216 0-4 1.784-4 4v8c0 2.216 1.784 4 4 4h8c2.216 0 4-1.784 4-4v-8c0-2.216-1.784-4-4-4zm106 0c-2.216 0-4 1.784-4 4v8c0 2.216 1.784 4 4 4h8c2.216 0 4-1.784 4-4v-8c0-2.216-1.784-4-4-4zm106 0c-2.216 0-4 1.784-4 4v8c0 2.216 1.784 4 4 4h8c2.216 0 4-1.784 4-4v-8c0-2.216-1.784-4-4-4zm34 0c-2.216 0-4 1.784-4 4v8c0 2.216 1.784 4 4 4h8c2.216 0 4-1.784 4-4v-8c0-2.216-1.784-4-4-4zm18 0c-2.216 0-4 1.784-4 4v8c0 2.216 1.784 4 4 4h8c2.216 0 4-1.784 4-4v-8c0-2.216-1.784-4-4-4zm70 0c-2.216 0-4 1.784-4 4v8c0 2.216 1.784 4 4 4h8c2.216 0 4-1.784 4-4v-8c0-2.216-1.784-4-4-4zm36 0c-2.216 0-4 1.784-4 4v8c0 2.216 1.784 4 4 4h8c2.216 0 4-1.784 4-4v-8c0-2.216-1.784-4-4-4zm52 0c-2.216 0-4 1.784-4 4v8c0 2.216 1.784 4 4 4h8c2.216 0 4-1.784 4-4v-8c0-2.216-1.784-4-4-4zm54 0c-2.216 0-4 1.784-4 4v8c0 2.216 1.784 4 4 4h8c2.216 0 4-1.784 4-4v-8c0-2.216-1.784-4-4-4zm52 0c-2.216 0-4 1.784-4 4v8c0 2.216 1.784 4 4 4h8c2.216 0 4-1.784 4-4v-8c0-2.216-1.784-4-4-4zm18 0c-2.216 0-4 1.784-4 4v8c0 2.216 1.784 4 4 4h8c2.216 0 4-1.784 4-4v-8c0-2.216-1.784-4-4-4zm-634 34c-2.216 0-4 1.784-4 4v8c0 2.216 1.784 4 4 4h8c2.216 0 4-1.784 4-4v-8c0-2.216-1.784-4-4-4zm36 0c-2.216 0-4 1.784-4 4v8c0 2.216 1.784 4 4 4h8c2.216 0 4-1.784 4-4v-8c0-2.216-1.784-4-4-4zm70 0c-2.216 0-4 1.784-4 4v8c0 2.216 1.784 4 4 4h8c2.216 0 4-1.784 4-4v-8c0-2.216-1.784-4-4-4zm18 0c-2.216 0-4 1.784-4 4v8c0 2.216 1.784 4 4 4h8c2.216 0 4-1.784 4-4v-8c0-2.216-1.784-4-4-4zm52 0c-2.216 0-4 1.784-4 4v8c0 2.216 1.784 4 4 4h8c2.216 0 4-1.784 4-4v-8c0-2.216-1.784-4-4-4zm18 0c-2.216 0-4 1.784-4 4v8c0 2.216 1.784 4 4 4h8c2.216 0 4-1.784 4-4v-8c0-2.216-1.784-4-4-4zm18 0c-2.216 0-4 1.784-4 4v8c0 2.216 1.784 4 4 4h8c2.216 0 4-1.784 4-4v-8c0-2.216-1.784-4-4-4zm34 0c-2.216 0-4 1.784-4 4v8c0 2.216 1.784 4 4 4h8c2.216 0 4-1.784 4-4v-8c0-2.216-1.784-4-4-4zm36 0c-2.216 0-4 1.784-4 4v8c0 2.216 1.784 4 4 4h8c2.216 0 4-1.784 4-4v-8c0-2.216-1.784-4-4-4zm18 0c-2.216 0-4 1.784-4 4v8c0 2.216 1.784 4 4 4h8c2.216 0 4-1.784 4-4v-8c0-2.216-1.784-4-4-4zm34 0c-2.216 0-4 1.784-4 4v8c0 2.216 1.784 4 4 4h8c2.216 0 4-1.784 4-4v-8c0-2.216-1.784-4-4-4zm18 0c-2.216 0-4 1.784-4 4v8c0 2.216 1.784 4 4 4h8c2.216 0 4-1.784 4-4v-8c0-2.216-1.784-4-4-4zm36 0c-2.216 0-4 1.784-4 4v8c0 2.216 1.784 4 4 4h8c2.216 0 4-1.784 4-4v-8c0-2.216-1.784-4-4-4zm34 0c-2.216 0-4 1.784-4 4v8c0 2.216 1.784 4 4 4h8c2.216 0 4-1.784 4-4v-8c0-2.216-1.784-4-4-4zm18 0c-2.216 0-4 1.784-4 4v8c0 2.216 1.784 4 4 4h8c2.216 0 4-1.784 4-4v-8c0-2.216-1.784-4-4-4zm18 0c-2.216 0-4 1.784-4 4v8c0 2.216 1.784 4 4 4h8c2.216 0 4-1.784 4-4v-8c0-2.216-1.784-4-4-4zm52 0c-2.216 0-4 1.784-4 4v8c0 2.216 1.784 4 4 4h8c2.216 0 4-1.784 4-4v-8c0-2.216-1.784-4-4-4zm18 0c-2.216 0-4 1.784-4 4v8c0 2.216 1.784 4 4 4h8c2.216 0 4-1.784 4-4v-8c0-2.216-1.784-4-4-4zm18 0c-2.216 0-4 1.784-4 4v8c0 2.216 1.784 4 4 4h8c2.216 0 4-1.784 4-4v-8c0-2.216-1.784-4-4-4zm18 0c-2.216 0-4 1.784-4 4v8c0 2.216 1.784 4 4 4h8c2.216 0 4-1.784 4-4v-8c0-2.216-1.784-4-4-4zm-564 18c-2.216 0-4 1.784-4 4v8c0 2.216 1.784 4 4 4h8c2.216 0 4-1.784 4-4v-8c0-2.216-1.784-4-4-4zm36 0c-2.216 0-4 1.784-4 4v8c0 2.216 1.784 4 4 4h8c2.216 0 4-1.784 4-4v-8c0-2.216-1.784-4-4-4zm70 0c-2.216 0-4 1.784-4 4v8c0 2.216 1.784 4 4 4h8c2.216 0 4-1.784 4-4v-8c0-2.216-1.784-4-4-4zm18 0c-2.216 0-4 1.784-4 4v8c0 2.216 1.784 4 4 4h8c2.216 0 4-1.784 4-4v-8c0-2.216-1.784-4-4-4zm52 0c-2.216 0-4 1.784-4 4v8c0 2.216 1.784 4 4 4h8c2.216 0 4-1.784 4-4v-8c0-2.216-1.784-4-4-4zm18 0c-2.216 0-4 1.784-4 4v8c0 2.216 1.784 4 4 4h8c2.216 0 4-1.784 4-4v-8c0-2.216-1.784-4-4-4zm18 0c-2.216 0-4 1.784-4 4v8c0 2.216 1.784 4 4 4h8c2.216 0 4-1.784 4-4v-8c0-2.216-1.784-4-4-4zm34 0c-2.216 0-4 1.784-4 4v8c0 2.216 1.784 4 4 4h8c2.216 0 4-1.784 4-4v-8c0-2.216-1.784-4-4-4zm36 0c-2.216 0-4 1.784-4 4v8c0 2.216 1.784 4 4 4h8c2.216 0 4-1.784 4-4v-8c0-2.216-1.784-4-4-4zm18 0c-2.216 0-4 1.784-4 4v8c0 2.216 1.784 4 4 4h8c2.216 0 4-1.784 4-4v-8c0-2.216-1.784-4-4-4zm34 0c-2.216 0-4 1.784-4 4v8c0 2.216 1.784 4 4 4h8c2.216 0 4-1.784 4-4v-8c0-2.216-1.784-4-4-4zm18 0c-2.216 0-4 1.784-4 4v8c0 2.216 1.784 4 4 4h8c2.216 0 4-1.784 4-4v-8c0-2.216-1.784-4-4-4zm36 0c-2.216 0-4 1.784-4 4v8c0 2.216 1.784 4 4 4h8c2.216 0 4-1.784 4-4v-8c0-2.216-1.784-4-4-4zm34 0c-2.216 0-4 1.784-4 4v8c0 2.216 1.784 4 4 4h8c2.216 0 4-1.784 4-4v-8c0-2.216-1.784-4-4-4zm18 0c-2.216 0-4 1.784-4 4v8c0 2.216 1.784 4 4 4h8c2.216 0 4-1.784 4-4v-8c0-2.216-1.784-4-4-4zm18 0c-2.216 0-4 1.784-4 4v8c0 2.216 1.784 4 4 4h8c2.216 0 4-1.784 4-4v-8c0-2.216-1.784-4-4-4zm52 0c-2.216 0-4 1.784-4 4v8c0 2.216 1.784 4 4 4h8c2.216 0 4-1.784 4-4v-8c0-2.216-1.784-4-4-4zm18 0c-2.216 0-4 1.784-4 4v8c0 2.216 1.784 4 4 4h8c2.216 0 4-1.784 4-4v-8c0-2.216-1.784-4-4-4zm18 0c-2.216 0-4 1.784-4 4v8c0 2.216 1.784 4 4 4h8c2.216 0 4-1.784 4-4v-8c0-2.216-1.784-4-4-4zm18 0c-2.216 0-4 1.784-4 4v8c0 2.216 1.784 4 4 4h8c2.216 0 4-1.784 4-4v-8c0-2.216-1.784-4-4-4zm-564 18c-2.216 0-4 1.784-4 4v8c0 2.216 1.784 4 4 4h8c2.216 0 4-1.784 4-4v-8c0-2.216-1.784-4-4-4zm36 0c-2.216 0-4 1.784-4 4v8c0 2.216 1.784 4 4 4h8c2.216 0 4-1.784 4-4v-8c0-2.216-1.784-4-4-4zm70 0c-2.216 0-4 1.784-4 4v8c0 2.216 1.784 4 4 4h8c2.216 0 4-1.784 4-4v-8c0-2.216-1.784-4-4-4zm18 0c-2.216 0-4 1.784-4 4v8c0 2.216 1.784 4 4 4h8c2.216 0 4-1.784 4-4v-8c0-2.216-1.784-4-4-4zm52 0c-2.216 0-4 1.784-4 4v8c0 2.216 1.784 4 4 4h8c2.216 0 4-1.784 4-4v-8c0-2.216-1.784-4-4-4zm18 0c-2.216 0-4 1.784-4 4v8c0 2.216 1.784 4 4 4h8c2.216 0 4-1.784 4-4v-8c0-2.216-1.784-4-4-4zm18 0c-2.216 0-4 1.784-4 4v8c0 2.216 1.784 4 4 4h8c2.216 0 4-1.784 4-4v-8c0-2.216-1.784-4-4-4zm34 0c-2.216 0-4 1.784-4 4v8c0 2.216 1.784 4 4 4h8c2.216 0 4-1.784 4-4v-8c0-2.216-1.784-4-4-4zm36 0c-2.216 0-4 1.784-4 4v8c0 2.216 1.784 4 4 4h8c2.216 0 4-1.784 4-4v-8c0-2.216-1.784-4-4-4zm18 0c-2.216 0-4 1.784-4 4v8c0 2.216 1.784 4 4 4h8c2.216 0 4-1.784 4-4v-8c0-2.216-1.784-4-4-4zm34 0c-2.216 0-4 1.784-4 4v8c0 2.216 1.784 4 4 4h8c2.216 0 4-1.784 4-4v-8c0-2.216-1.784-4-4-4zm18 0c-2.216 0-4 1.784-4 4v8c0 2.216 1.784 4 4 4h8c2.216 0 4-1.784 4-4v-8c0-2.216-1.784-4-4-4zm36 0c-2.216 0-4 1.784-4 4v8c0 2.216 1.784 4 4 4h8c2.216 0 4-1.784 4-4v-8c0-2.216-1.784-4-4-4zm34 0c-2.216 0-4 1.784-4 4v8c0 2.216 1.784 4 4 4h8c2.216 0 4-1.784 4-4v-8c0-2.216-1.784-4-4-4zm18 0c-2.216 0-4 1.784-4 4v8c0 2.216 1.784 4 4 4h8c2.216 0 4-1.784 4-4v-8c0-2.216-1.784-4-4-4zm18 0c-2.216 0-4 1.784-4 4v8c0 2.216 1.784 4 4 4h8c2.216 0 4-1.784 4-4v-8c0-2.216-1.784-4-4-4zm52 0c-2.216 0-4 1.784-4 4v8c0 2.216 1.784 4 4 4h8c2.216 0 4-1.784 4-4v-8c0-2.216-1.784-4-4-4zm18 0c-2.216 0-4 1.784-4 4v8c0 2.216 1.784 4 4 4h8c2.216 0 4-1.784 4-4v-8c0-2.216-1.784-4-4-4zm18 0c-2.216 0-4 1.784-4 4v8c0 2.216 1.784 4 4 4h8c2.216 0 4-1.784 4-4v-8c0-2.216-1.784-4-4-4zm18 0c-2.216 0-4 1.784-4 4v8c0 2.216 1.784 4 4 4h8c2.216 0 4-1.784 4-4v-8c0-2.216-1.784-4-4-4zm-564 18c-2.216 0-4 1.784-4 4v8c0 2.216 1.784 4 4 4h8c2.216 0 4-1.784 4-4v-8c0-2.216-1.784-4-4-4zm36 0c-2.216 0-4 1.784-4 4v8c0 2.216 1.784 4 4 4h8c2.216 0 4-1.784 4-4v-8c0-2.216-1.784-4-4-4zm70 0c-2.216 0-4 1.784-4 4v8c0 2.216 1.784 4 4 4h8c2.216 0 4-1.784 4-4v-8c0-2.216-1.784-4-4-4zm18 0c-2.216 0-4 1.784-4 4v8c0 2.216 1.784 4 4 4h8c2.216 0 4-1.784 4-4v-8c0-2.216-1.784-4-4-4zm52 0c-2.216 0-4 1.784-4 4v8c0 2.216 1.784 4 4 4h8c2.216 0 4-1.784 4-4v-8c0-2.216-1.784-4-4-4zm18 0c-2.216 0-4 1.784-4 4v8c0 2.216 1.784 4 4 4h8c2.216 0 4-1.784 4-4v-8c0-2.216-1.784-4-4-4zm18 0c-2.216 0-4 1.784-4 4v8c0 2.216 1.784 4 4 4h8c2.216 0 4-1.784 4-4v-8c0-2.216-1.784-4-4-4zm34 0c-2.216 0-4 1.784-4 4v8c0 2.216 1.784 4 4 4h8c2.216 0 4-1.784 4-4v-8c0-2.216-1.784-4-4-4zm36 0c-2.216 0-4 1.784-4 4v8c0 2.216 1.784 4 4 4h8c2.216 0 4-1.784 4-4v-8c0-2.216-1.784-4-4-4zm18 0c-2.216 0-4 1.784-4 4v8c0 2.216 1.784 4 4 4h8c2.216 0 4-1.784 4-4v-8c0-2.216-1.784-4-4-4zm34 0c-2.216 0-4 1.784-4 4v8c0 2.216 1.784 4 4 4h8c2.216 0 4-1.784 4-4v-8c0-2.216-1.784-4-4-4zm18 0c-2.216 0-4 1.784-4 4v8c0 2.216 1.784 4 4 4h8c2.216 0 4-1.784 4-4v-8c0-2.216-1.784-4-4-4zm36 0c-2.216 0-4 1.784-4 4v8c0 2.216 1.784 4 4 4h8c2.216 0 4-1.784 4-4v-8c0-2.216-1.784-4-4-4zm34 0c-2.216 0-4 1.784-4 4v8c0 2.216 1.784 4 4 4h8c2.216 0 4-1.784 4-4v-8c0-2.216-1.784-4-4-4zm18 0c-2.216 0-4 1.784-4 4v8c0 2.216 1.784 4 4 4h8c2.216 0 4-1.784 4-4v-8c0-2.216-1.784-4-4-4zm18 0c-2.216 0-4 1.784-4 4v8c0 2.216 1.784 4 4 4h8c2.216 0 4-1.784 4-4v-8c0-2.216-1.784-4-4-4zm52 0c-2.216 0-4 1.784-4 4v8c0 2.216 1.784 4 4 4h8c2.216 0 4-1.784 4-4v-8c0-2.216-1.784-4-4-4zm18 0c-2.216 0-4 1.784-4 4v8c0 2.216 1.784 4 4 4h8c2.216 0 4-1.784 4-4v-8c0-2.216-1.784-4-4-4zm18 0c-2.216 0-4 1.784-4 4v8c0 2.216 1.784 4 4 4h8c2.216 0 4-1.784 4-4v-8c0-2.216-1.784-4-4-4zm18 0c-2.216 0-4 1.784-4 4v8c0 2.216 1.784 4 4 4h8c2.216 0 4-1.784 4-4v-8c0-2.216-1.784-4-4-4zm-582 187c-2.216 0-4 1.784-4 4v8c0 2.216 1.784 4 4 4h8c2.216 0 4-1.784 4-4v-8c0-2.216-1.784-4-4-4zm106 0c-2.216 0-4 1.784-4 4v8c0 2.216 1.784 4 4 4h8c2.216 0 4-1.784 4-4v-8c0-2.216-1.784-4-4-4zm106 0c-2.216 0-4 1.784-4 4v8c0 2.216 1.784 4 4 4h8c2.216 0 4-1.784 4-4v-8c0-2.216-1.784-4-4-4zm106 0c-2.216 0-4 1.784-4 4v8c0 2.216 1.784 4 4 4h8c2.216 0 4-1.784 4-4v-8c0-2.216-1.784-4-4-4zm34 0c-2.216 0-4 1.784-4 4v8c0 2.216 1.784 4 4 4h8c2.216 0 4-1.784 4-4v-8c0-2.216-1.784-4-4-4zm18 0c-2.216 0-4 1.784-4 4v8c0 2.216 1.784 4 4 4h8c2.216 0 4-1.784 4-4v-8c0-2.216-1.784-4-4-4zm70 0c-2.216 0-4 1.784-4 4v8c0 2.216 1.784 4 4 4h8c2.216 0 4-1.784 4-4v-8c0-2.216-1.784-4-4-4zm36 0c-2.216 0-4 1.784-4 4v8c0 2.216 1.784 4 4 4h8c2.216 0 4-1.784 4-4v-8c0-2.216-1.784-4-4-4zm52 0c-2.216 0-4 1.784-4 4v8c0 2.216 1.784 4 4 4h8c2.216 0 4-1.784 4-4v-8c0-2.216-1.784-4-4-4zm54 0c-2.216 0-4 1.784-4 4v8c0 2.216 1.784 4 4 4h8c2.216 0 4-1.784 4-4v-8c0-2.216-1.784-4-4-4zm52 0c-2.216 0-4 1.784-4 4v8c0 2.216 1.784 4 4 4h8c2.216 0 4-1.784 4-4v-8c0-2.216-1.784-4-4-4zm18 0c-2.216 0-4 1.784-4 4v8c0 2.216 1.784 4 4 4h8c2.216 0 4-1.784 4-4v-8c0-2.216-1.784-4-4-4zm-652 18c-2.216 0-4 1.784-4 4v8c0 2.216 1.784 4 4 4h8c2.216 0 4-1.784 4-4v-8c0-2.216-1.784-4-4-4zm106 0c-2.216 0-4 1.784-4 4v8c0 2.216 1.784 4 4 4h8c2.216 0 4-1.784 4-4v-8c0-2.216-1.784-4-4-4zm106 0c-2.216 0-4 1.784-4 4v8c0 2.216 1.784 4 4 4h8c2.216 0 4-1.784 4-4v-8c0-2.216-1.784-4-4-4zm106 0c-2.216 0-4 1.784-4 4v8c0 2.216 1.784 4 4 4h8c2.216 0 4-1.784 4-4v-8c0-2.216-1.784-4-4-4zm34 0c-2.216 0-4 1.784-4 4v8c0 2.216 1.784 4 4 4h8c2.216 0 4-1.784 4-4v-8c0-2.216-1.784-4-4-4zm18 0c-2.216 0-4 1.784-4 4v8c0 2.216 1.784 4 4 4h8c2.216 0 4-1.784 4-4v-8c0-2.216-1.784-4-4-4zm70 0c-2.216 0-4 1.784-4 4v8c0 2.216 1.784 4 4 4h8c2.216 0 4-1.784 4-4v-8c0-2.216-1.784-4-4-4zm36 0c-2.216 0-4 1.784-4 4v8c0 2.216 1.784 4 4 4h8c2.216 0 4-1.784 4-4v-8c0-2.216-1.784-4-4-4zm52 0c-2.216 0-4 1.784-4 4v8c0 2.216 1.784 4 4 4h8c2.216 0 4-1.784 4-4v-8c0-2.216-1.784-4-4-4zm54 0c-2.216 0-4 1.784-4 4v8c0 2.216 1.784 4 4 4h8c2.216 0 4-1.784 4-4v-8c0-2.216-1.784-4-4-4zm52 0c-2.216 0-4 1.784-4 4v8c0 2.216 1.784 4 4 4h8c2.216 0 4-1.784 4-4v-8c0-2.216-1.784-4-4-4zm18 0c-2.216 0-4 1.784-4 4v8c0 2.216 1.784 4 4 4h8c2.216 0 4-1.784 4-4v-8c0-2.216-1.784-4-4-4zm-652 18c-2.216 0-4 1.784-4 4v8c0 2.216 1.784 4 4 4h8c2.216 0 4-1.784 4-4v-8c0-2.216-1.784-4-4-4zm18 0c-2.216 0-4 1.784-4 4v8c0 2.216 1.784 4 4 4h8c2.216 0 4-1.784 4-4v-8c0-2.216-1.784-4-4-4zm18 0c-2.216 0-4 1.784-4 4v8c0 2.216 1.784 4 4 4h8c2.216 0 4-1.784 4-4v-8c0-2.216-1.784-4-4-4zm18 0c-2.216 0-4 1.784-4 4v8c0 2.216 1.784 4 4 4h8c2.216 0 4-1.784 4-4v-8c0-2.216-1.784-4-4-4zm140 0c-2.216 0-4 1.784-4 4v8c0 2.216 1.784 4 4 4h8c2.216 0 4-1.784 4-4v-8c0-2.216-1.784-4-4-4zm36 0c-2.216 0-4 1.784-4 4v8c0 2.216 1.784 4 4 4h8c2.216 0 4-1.784 4-4v-8c0-2.216-1.784-4-4-4zm70 0c-2.216 0-4 1.784-4 4v8c0 2.216 1.784 4 4 4h8c2.216 0 4-1.784 4-4v-8c0-2.216-1.784-4-4-4zm18 0c-2.216 0-4 1.784-4 4v8c0 2.216 1.784 4 4 4h8c2.216 0 4-1.784 4-4v-8c0-2.216-1.784-4-4-4zm52 0c-2.216 0-4 1.784-4 4v8c0 2.216 1.784 4 4 4h8c2.216 0 4-1.784 4-4v-8c0-2.216-1.784-4-4-4zm18 0c-2.216 0-4 1.784-4 4v8c0 2.216 1.784 4 4 4h8c2.216 0 4-1.784 4-4v-8c0-2.216-1.784-4-4-4zm18 0c-2.216 0-4 1.784-4 4v8c0 2.216 1.784 4 4 4h8c2.216 0 4-1.784 4-4v-8c0-2.216-1.784-4-4-4zm34 0c-2.216 0-4 1.784-4 4v8c0 2.216 1.784 4 4 4h8c2.216 0 4-1.784 4-4v-8c0-2.216-1.784-4-4-4zm36 0c-2.216 0-4 1.784-4 4v8c0 2.216 1.784 4 4 4h8c2.216 0 4-1.784 4-4v-8c0-2.216-1.784-4-4-4zm18 0c-2.216 0-4 1.784-4 4v8c0 2.216 1.784 4 4 4h8c2.216 0 4-1.784 4-4v-8c0-2.216-1.784-4-4-4zm34 0c-2.216 0-4 1.784-4 4v8c0 2.216 1.784 4 4 4h8c2.216 0 4-1.784 4-4v-8c0-2.216-1.784-4-4-4zm18 0c-2.216 0-4 1.784-4 4v8c0 2.216 1.784 4 4 4h8c2.216 0 4-1.784 4-4v-8c0-2.216-1.784-4-4-4zm36 0c-2.216 0-4 1.784-4 4v8c0 2.216 1.784 4 4 4h8c2.216 0 4-1.784 4-4v-8c0-2.216-1.784-4-4-4zm34 0c-2.216 0-4 1.784-4 4v8c0 2.216 1.784 4 4 4h8c2.216 0 4-1.784 4-4v-8c0-2.216-1.784-4-4-4zm18 0c-2.216 0-4 1.784-4 4v8c0 2.216 1.784 4 4 4h8c2.216 0 4-1.784 4-4v-8c0-2.216-1.784-4-4-4zm-634 18c-2.216 0-4 1.784-4 4v8c0 2.216 1.784 4 4 4h8c2.216 0 4-1.784 4-4v-8c0-2.216-1.784-4-4-4zm18 0c-2.216 0-4 1.784-4 4v8c0 2.216 1.784 4 4 4h8c2.216 0 4-1.784 4-4v-8c0-2.216-1.784-4-4-4zm18 0c-2.216 0-4 1.784-4 4v8c0 2.216 1.784 4 4 4h8c2.216 0 4-1.784 4-4v-8c0-2.216-1.784-4-4-4zm18 0c-2.216 0-4 1.784-4 4v8c0 2.216 1.784 4 4 4h8c2.216 0 4-1.784 4-4v-8c0-2.216-1.784-4-4-4zm140 0c-2.216 0-4 1.784-4 4v8c0 2.216 1.784 4 4 4h8c2.216 0 4-1.784 4-4v-8c0-2.216-1.784-4-4-4zm36 0c-2.216 0-4 1.784-4 4v8c0 2.216 1.784 4 4 4h8c2.216 0 4-1.784 4-4v-8c0-2.216-1.784-4-4-4zm70 0c-2.216 0-4 1.784-4 4v8c0 2.216 1.784 4 4 4h8c2.216 0 4-1.784 4-4v-8c0-2.216-1.784-4-4-4zm18 0c-2.216 0-4 1.784-4 4v8c0 2.216 1.784 4 4 4h8c2.216 0 4-1.784 4-4v-8c0-2.216-1.784-4-4-4zm52 0c-2.216 0-4 1.784-4 4v8c0 2.216 1.784 4 4 4h8c2.216 0 4-1.784 4-4v-8c0-2.216-1.784-4-4-4zm18 0c-2.216 0-4 1.784-4 4v8c0 2.216 1.784 4 4 4h8c2.216 0 4-1.784 4-4v-8c0-2.216-1.784-4-4-4zm18 0c-2.216 0-4 1.784-4 4v8c0 2.216 1.784 4 4 4h8c2.216 0 4-1.784 4-4v-8c0-2.216-1.784-4-4-4zm34 0c-2.216 0-4 1.784-4 4v8c0 2.216 1.784 4 4 4h8c2.216 0 4-1.784 4-4v-8c0-2.216-1.784-4-4-4zm36 0c-2.216 0-4 1.784-4 4v8c0 2.216 1.784 4 4 4h8c2.216 0 4-1.784 4-4v-8c0-2.216-1.784-4-4-4zm18 0c-2.216 0-4 1.784-4 4v8c0 2.216 1.784 4 4 4h8c2.216 0 4-1.784 4-4v-8c0-2.216-1.784-4-4-4zm34 0c-2.216 0-4 1.784-4 4v8c0 2.216 1.784 4 4 4h8c2.216 0 4-1.784 4-4v-8c0-2.216-1.784-4-4-4zm18 0c-2.216 0-4 1.784-4 4v8c0 2.216 1.784 4 4 4h8c2.216 0 4-1.784 4-4v-8c0-2.216-1.784-4-4-4zm36 0c-2.216 0-4 1.784-4 4v8c0 2.216 1.784 4 4 4h8c2.216 0 4-1.784 4-4v-8c0-2.216-1.784-4-4-4zm34 0c-2.216 0-4 1.784-4 4v8c0 2.216 1.784 4 4 4h8c2.216 0 4-1.784 4-4v-8c0-2.216-1.784-4-4-4zm18 0c-2.216 0-4 1.784-4 4v8c0 2.216 1.784 4 4 4h8c2.216 0 4-1.784 4-4v-8c0-2.216-1.784-4-4-4zm-598 36c-2.216 0-4 1.784-4 4v8c0 2.216 1.784 4 4 4h8c2.216 0 4-1.784 4-4v-8c0-2.216-1.784-4-4-4zm18 0c-2.216 0-4 1.784-4 4v8c0 2.216 1.784 4 4 4h8c2.216 0 4-1.784 4-4v-8c0-2.216-1.784-4-4-4zm52 0c-2.216 0-4 1.784-4 4v8c0 2.216 1.784 4 4 4h8c2.216 0 4-1.784 4-4v-8c0-2.216-1.784-4-4-4zm18 0c-2.216 0-4 1.784-4 4v8c0 2.216 1.784 4 4 4h8c2.216 0 4-1.784 4-4v-8c0-2.216-1.784-4-4-4zm18 0c-2.216 0-4 1.784-4 4v8c0 2.216 1.784 4 4 4h8c2.216 0 4-1.784 4-4v-8c0-2.216-1.784-4-4-4zm34 0c-2.216 0-4 1.784-4 4v8c0 2.216 1.784 4 4 4h8c2.216 0 4-1.784 4-4v-8c0-2.216-1.784-4-4-4zm36 0c-2.216 0-4 1.784-4 4v8c0 2.216 1.784 4 4 4h8c2.216 0 4-1.784 4-4v-8c0-2.216-1.784-4-4-4zm18 0c-2.216 0-4 1.784-4 4v8c0 2.216 1.784 4 4 4h8c2.216 0 4-1.784 4-4v-8c0-2.216-1.784-4-4-4zm34 0c-2.216 0-4 1.784-4 4v8c0 2.216 1.784 4 4 4h8c2.216 0 4-1.784 4-4v-8c0-2.216-1.784-4-4-4zm18 0c-2.216 0-4 1.784-4 4v8c0 2.216 1.784 4 4 4h8c2.216 0 4-1.784 4-4v-8c0-2.216-1.784-4-4-4zm36 0c-2.216 0-4 1.784-4 4v8c0 2.216 1.784 4 4 4h8c2.216 0 4-1.784 4-4v-8c0-2.216-1.784-4-4-4zm34 0c-2.216 0-4 1.784-4 4v8c0 2.216 1.784 4 4 4h8c2.216 0 4-1.784 4-4v-8c0-2.216-1.784-4-4-4zm18 0c-2.216 0-4 1.784-4 4v8c0 2.216 1.784 4 4 4h8c2.216 0 4-1.784 4-4v-8c0-2.216-1.784-4-4-4zm18 0c-2.216 0-4 1.784-4 4v8c0 2.216 1.784 4 4 4h8c2.216 0 4-1.784 4-4v-8c0-2.216-1.784-4-4-4zm52 0c-2.216 0-4 1.784-4 4v8c0 2.216 1.784 4 4 4h8c2.216 0 4-1.784 4-4v-8c0-2.216-1.784-4-4-4zm18 0c-2.216 0-4 1.784-4 4v8c0 2.216 1.784 4 4 4h8c2.216 0 4-1.784 4-4v-8c0-2.216-1.784-4-4-4zm18 0c-2.216 0-4 1.784-4 4v8c0 2.216 1.784 4 4 4h8c2.216 0 4-1.784 4-4v-8c0-2.216-1.784-4-4-4zm18 0c-2.216 0-4 1.784-4 4v8c0 2.216 1.784 4 4 4h8c2.216 0 4-1.784 4-4v-8c0-2.216-1.784-4-4-4zm140 0c-2.216 0-4 1.784-4 4v8c0 2.216 1.784 4 4 4h8c2.216 0 4-1.784 4-4v-8c0-2.216-1.784-4-4-4zm36 0c-2.216 0-4 1.784-4 4v8c0 2.216 1.784 4 4 4h8c2.216 0 4-1.784 4-4v-8c0-2.216-1.784-4-4-4zm-634 18c-2.216 0-4 1.784-4 4v8c0 2.216 1.784 4 4 4h8c2.216 0 4-1.784 4-4v-8c0-2.216-1.784-4-4-4zm18 0c-2.216 0-4 1.784-4 4v8c0 2.216 1.784 4 4 4h8c2.216 0 4-1.784 4-4v-8c0-2.216-1.784-4-4-4zm52 0c-2.216 0-4 1.784-4 4v8c0 2.216 1.784 4 4 4h8c2.216 0 4-1.784 4-4v-8c0-2.216-1.784-4-4-4zm18 0c-2.216 0-4 1.784-4 4v8c0 2.216 1.784 4 4 4h8c2.216 0 4-1.784 4-4v-8c0-2.216-1.784-4-4-4zm18 0c-2.216 0-4 1.784-4 4v8c0 2.216 1.784 4 4 4h8c2.216 0 4-1.784 4-4v-8c0-2.216-1.784-4-4-4zm34 0c-2.216 0-4 1.784-4 4v8c0 2.216 1.784 4 4 4h8c2.216 0 4-1.784 4-4v-8c0-2.216-1.784-4-4-4zm36 0c-2.216 0-4 1.784-4 4v8c0 2.216 1.784 4 4 4h8c2.216 0 4-1.784 4-4v-8c0-2.216-1.784-4-4-4zm18 0c-2.216 0-4 1.784-4 4v8c0 2.216 1.784 4 4 4h8c2.216 0 4-1.784 4-4v-8c0-2.216-1.784-4-4-4zm34 0c-2.216 0-4 1.784-4 4v8c0 2.216 1.784 4 4 4h8c2.216 0 4-1.784 4-4v-8c0-2.216-1.784-4-4-4zm18 0c-2.216 0-4 1.784-4 4v8c0 2.216 1.784 4 4 4h8c2.216 0 4-1.784 4-4v-8c0-2.216-1.784-4-4-4zm36 0c-2.216 0-4 1.784-4 4v8c0 2.216 1.784 4 4 4h8c2.216 0 4-1.784 4-4v-8c0-2.216-1.784-4-4-4zm34 0c-2.216 0-4 1.784-4 4v8c0 2.216 1.784 4 4 4h8c2.216 0 4-1.784 4-4v-8c0-2.216-1.784-4-4-4zm18 0c-2.216 0-4 1.784-4 4v8c0 2.216 1.784 4 4 4h8c2.216 0 4-1.784 4-4v-8c0-2.216-1.784-4-4-4zm18 0c-2.216 0-4 1.784-4 4v8c0 2.216 1.784 4 4 4h8c2.216 0 4-1.784 4-4v-8c0-2.216-1.784-4-4-4zm52 0c-2.216 0-4 1.784-4 4v8c0 2.216 1.784 4 4 4h8c2.216 0 4-1.784 4-4v-8c0-2.216-1.784-4-4-4zm18 0c-2.216 0-4 1.784-4 4v8c0 2.216 1.784 4 4 4h8c2.216 0 4-1.784 4-4v-8c0-2.216-1.784-4-4-4zm18 0c-2.216 0-4 1.784-4 4v8c0 2.216 1.784 4 4 4h8c2.216 0 4-1.784 4-4v-8c0-2.216-1.784-4-4-4zm18 0c-2.216 0-4 1.784-4 4v8c0 2.216 1.784 4 4 4h8c2.216 0 4-1.784 4-4v-8c0-2.216-1.784-4-4-4zm140 0c-2.216 0-4 1.784-4 4v8c0 2.216 1.784 4 4 4h8c2.216 0 4-1.784 4-4v-8c0-2.216-1.784-4-4-4zm36 0c-2.216 0-4 1.784-4 4v8c0 2.216 1.784 4 4 4h8c2.216 0 4-1.784 4-4v-8c0-2.216-1.784-4-4-4zm-652 18c-2.216 0-4 1.784-4 4v8c0 2.216 1.784 4 4 4h8c2.216 0 4-1.784 4-4v-8c0-2.216-1.784-4-4-4zm36 0c-2.216 0-4 1.784-4 4v8c0 2.216 1.784 4 4 4h8c2.216 0 4-1.784 4-4v-8c0-2.216-1.784-4-4-4zm70 0c-2.216 0-4 1.784-4 4v8c0 2.216 1.784 4 4 4h8c2.216 0 4-1.784 4-4v-8c0-2.216-1.784-4-4-4zm18 0c-2.216 0-4 1.784-4 4v8c0 2.216 1.784 4 4 4h8c2.216 0 4-1.784 4-4v-8c0-2.216-1.784-4-4-4zm52 0c-2.216 0-4 1.784-4 4v8c0 2.216 1.784 4 4 4h8c2.216 0 4-1.784 4-4v-8c0-2.216-1.784-4-4-4zm18 0c-2.216 0-4 1.784-4 4v8c0 2.216 1.784 4 4 4h8c2.216 0 4-1.784 4-4v-8c0-2.216-1.784-4-4-4zm18 0c-2.216 0-4 1.784-4 4v8c0 2.216 1.784 4 4 4h8c2.216 0 4-1.784 4-4v-8c0-2.216-1.784-4-4-4zm34 0c-2.216 0-4 1.784-4 4v8c0 2.216 1.784 4 4 4h8c2.216 0 4-1.784 4-4v-8c0-2.216-1.784-4-4-4zm36 0c-2.216 0-4 1.784-4 4v8c0 2.216 1.784 4 4 4h8c2.216 0 4-1.784 4-4v-8c0-2.216-1.784-4-4-4zm18 0c-2.216 0-4 1.784-4 4v8c0 2.216 1.784 4 4 4h8c2.216 0 4-1.784 4-4v-8c0-2.216-1.784-4-4-4zm34 0c-2.216 0-4 1.784-4 4v8c0 2.216 1.784 4 4 4h8c2.216 0 4-1.784 4-4v-8c0-2.216-1.784-4-4-4zm18 0c-2.216 0-4 1.784-4 4v8c0 2.216 1.784 4 4 4h8c2.216 0 4-1.784 4-4v-8c0-2.216-1.784-4-4-4zm36 0c-2.216 0-4 1.784-4 4v8c0 2.216 1.784 4 4 4h8c2.216 0 4-1.784 4-4v-8c0-2.216-1.784-4-4-4zm34 0c-2.216 0-4 1.784-4 4v8c0 2.216 1.784 4 4 4h8c2.216 0 4-1.784 4-4v-8c0-2.216-1.784-4-4-4zm18 0c-2.216 0-4 1.784-4 4v8c0 2.216 1.784 4 4 4h8c2.216 0 4-1.784 4-4v-8c0-2.216-1.784-4-4-4zm18 0c-2.216 0-4 1.784-4 4v8c0 2.216 1.784 4 4 4h8c2.216 0 4-1.784 4-4v-8c0-2.216-1.784-4-4-4zm52 0c-2.216 0-4 1.784-4 4v8c0 2.216 1.784 4 4 4h8c2.216 0 4-1.784 4-4v-8c0-2.216-1.784-4-4-4zm18 0c-2.216 0-4 1.784-4 4v8c0 2.216 1.784 4 4 4h8c2.216 0 4-1.784 4-4v-8c0-2.216-1.784-4-4-4zm18 0c-2.216 0-4 1.784-4 4v8c0 2.216 1.784 4 4 4h8c2.216 0 4-1.784 4-4v-8c0-2.216-1.784-4-4-4zm18 0c-2.216 0-4 1.784-4 4v8c0 2.216 1.784 4 4 4h8c2.216 0 4-1.784 4-4v-8c0-2.216-1.784-4-4-4zm-564 18c-2.216 0-4 1.784-4 4v8c0 2.216 1.784 4 4 4h8c2.216 0 4-1.784 4-4v-8c0-2.216-1.784-4-4-4zm36 0c-2.216 0-4 1.784-4 4v8c0 2.216 1.784 4 4 4h8c2.216 0 4-1.784 4-4v-8c0-2.216-1.784-4-4-4zm70 0c-2.216 0-4 1.784-4 4v8c0 2.216 1.784 4 4 4h8c2.216 0 4-1.784 4-4v-8c0-2.216-1.784-4-4-4zm18 0c-2.216 0-4 1.784-4 4v8c0 2.216 1.784 4 4 4h8c2.216 0 4-1.784 4-4v-8c0-2.216-1.784-4-4-4zm52 0c-2.216 0-4 1.784-4 4v8c0 2.216 1.784 4 4 4h8c2.216 0 4-1.784 4-4v-8c0-2.216-1.784-4-4-4zm18 0c-2.216 0-4 1.784-4 4v8c0 2.216 1.784 4 4 4h8c2.216 0 4-1.784 4-4v-8c0-2.216-1.784-4-4-4zm18 0c-2.216 0-4 1.784-4 4v8c0 2.216 1.784 4 4 4h8c2.216 0 4-1.784 4-4v-8c0-2.216-1.784-4-4-4zm34 0c-2.216 0-4 1.784-4 4v8c0 2.216 1.784 4 4 4h8c2.216 0 4-1.784 4-4v-8c0-2.216-1.784-4-4-4zm36 0c-2.216 0-4 1.784-4 4v8c0 2.216 1.784 4 4 4h8c2.216 0 4-1.784 4-4v-8c0-2.216-1.784-4-4-4zm18 0c-2.216 0-4 1.784-4 4v8c0 2.216 1.784 4 4 4h8c2.216 0 4-1.784 4-4v-8c0-2.216-1.784-4-4-4zm34 0c-2.216 0-4 1.784-4 4v8c0 2.216 1.784 4 4 4h8c2.216 0 4-1.784 4-4v-8c0-2.216-1.784-4-4-4zm18 0c-2.216 0-4 1.784-4 4v8c0 2.216 1.784 4 4 4h8c2.216 0 4-1.784 4-4v-8c0-2.216-1.784-4-4-4zm36 0c-2.216 0-4 1.784-4 4v8c0 2.216 1.784 4 4 4h8c2.216 0 4-1.784 4-4v-8c0-2.216-1.784-4-4-4zm34 0c-2.216 0-4 1.784-4 4v8c0 2.216 1.784 4 4 4h8c2.216 0 4-1.784 4-4v-8c0-2.216-1.784-4-4-4zm18 0c-2.216 0-4 1.784-4 4v8c0 2.216 1.784 4 4 4h8c2.216 0 4-1.784 4-4v-8c0-2.216-1.784-4-4-4zm18 0c-2.216 0-4 1.784-4 4v8c0 2.216 1.784 4 4 4h8c2.216 0 4-1.784 4-4v-8c0-2.216-1.784-4-4-4zm52 0c-2.216 0-4 1.784-4 4v8c0 2.216 1.784 4 4 4h8c2.216 0 4-1.784 4-4v-8c0-2.216-1.784-4-4-4zm18 0c-2.216 0-4 1.784-4 4v8c0 2.216 1.784 4 4 4h8c2.216 0 4-1.784 4-4v-8c0-2.216-1.784-4-4-4zm18 0c-2.216 0-4 1.784-4 4v8c0 2.216 1.784 4 4 4h8c2.216 0 4-1.784 4-4v-8c0-2.216-1.784-4-4-4zm18 0c-2.216 0-4 1.784-4 4v8c0 2.216 1.784 4 4 4h8c2.216 0 4-1.784 4-4v-8c0-2.216-1.784-4-4-4zm-582 36c-2.216 0-4 1.784-4 4v8c0 2.216 1.784 4 4 4h8c2.216 0 4-1.784 4-4v-8c0-2.216-1.784-4-4-4zm106 0c-2.216 0-4 1.784-4 4v8c0 2.216 1.784 4 4 4h8c2.216 0 4-1.784 4-4v-8c0-2.216-1.784-4-4-4zm106 0c-2.216 0-4 1.784-4 4v8c0 2.216 1.784 4 4 4h8c2.216 0 4-1.784 4-4v-8c0-2.216-1.784-4-4-4zm106 0c-2.216 0-4 1.784-4 4v8c0 2.216 1.784 4 4 4h8c2.216 0 4-1.784 4-4v-8c0-2.216-1.784-4-4-4zm34 0c-2.216 0-4 1.784-4 4v8c0 2.216 1.784 4 4 4h8c2.216 0 4-1.784 4-4v-8c0-2.216-1.784-4-4-4zm18 0c-2.216 0-4 1.784-4 4v8c0 2.216 1.784 4 4 4h8c2.216 0 4-1.784 4-4v-8c0-2.216-1.784-4-4-4zm70 0c-2.216 0-4 1.784-4 4v8c0 2.216 1.784 4 4 4h8c2.216 0 4-1.784 4-4v-8c0-2.216-1.784-4-4-4zm36 0c-2.216 0-4 1.784-4 4v8c0 2.216 1.784 4 4 4h8c2.216 0 4-1.784 4-4v-8c0-2.216-1.784-4-4-4zm52 0c-2.216 0-4 1.784-4 4v8c0 2.216 1.784 4 4 4h8c2.216 0 4-1.784 4-4v-8c0-2.216-1.784-4-4-4zm54 0c-2.216 0-4 1.784-4 4v8c0 2.216 1.784 4 4 4h8c2.216 0 4-1.784 4-4v-8c0-2.216-1.784-4-4-4zm52 0c-2.216 0-4 1.784-4 4v8c0 2.216 1.784 4 4 4h8c2.216 0 4-1.784 4-4v-8c0-2.216-1.784-4-4-4zm18 0c-2.216 0-4 1.784-4 4v8c0 2.216 1.784 4 4 4h8c2.216 0 4-1.784 4-4v-8c0-2.216-1.784-4-4-4zm-652 18c-2.216 0-4 1.784-4 4v8c0 2.216 1.784 4 4 4h8c2.216 0 4-1.784 4-4v-8c0-2.216-1.784-4-4-4zm106 0c-2.216 0-4 1.784-4 4v8c0 2.216 1.784 4 4 4h8c2.216 0 4-1.784 4-4v-8c0-2.216-1.784-4-4-4zm106 0c-2.216 0-4 1.784-4 4v8c0 2.216 1.784 4 4 4h8c2.216 0 4-1.784 4-4v-8c0-2.216-1.784-4-4-4zm106 0c-2.216 0-4 1.784-4 4v8c0 2.216 1.784 4 4 4h8c2.216 0 4-1.784 4-4v-8c0-2.216-1.784-4-4-4zm34 0c-2.216 0-4 1.784-4 4v8c0 2.216 1.784 4 4 4h8c2.216 0 4-1.784 4-4v-8c0-2.216-1.784-4-4-4zm18 0c-2.216 0-4 1.784-4 4v8c0 2.216 1.784 4 4 4h8c2.216 0 4-1.784 4-4v-8c0-2.216-1.784-4-4-4zm70 0c-2.216 0-4 1.784-4 4v8c0 2.216 1.784 4 4 4h8c2.216 0 4-1.784 4-4v-8c0-2.216-1.784-4-4-4zm36 0c-2.216 0-4 1.784-4 4v8c0 2.216 1.784 4 4 4h8c2.216 0 4-1.784 4-4v-8c0-2.216-1.784-4-4-4zm52 0c-2.216 0-4 1.784-4 4v8c0 2.216 1.784 4 4 4h8c2.216 0 4-1.784 4-4v-8c0-2.216-1.784-4-4-4zm54 0c-2.216 0-4 1.784-4 4v8c0 2.216 1.784 4 4 4h8c2.216 0 4-1.784 4-4v-8c0-2.216-1.784-4-4-4zm52 0c-2.216 0-4 1.784-4 4v8c0 2.216 1.784 4 4 4h8c2.216 0 4-1.784 4-4v-8c0-2.216-1.784-4-4-4zm18 0c-2.216 0-4 1.784-4 4v8c0 2.216 1.784 4 4 4h8c2.216 0 4-1.784 4-4v-8c0-2.216-1.784-4-4-4zm-634 18c-2.216 0-4 1.784-4 4v8c0 2.216 1.784 4 4 4h8c2.216 0 4-1.784 4-4v-8c0-2.216-1.784-4-4-4zm36 0c-2.216 0-4 1.784-4 4v8c0 2.216 1.784 4 4 4h8c2.216 0 4-1.784 4-4v-8c0-2.216-1.784-4-4-4zm70 0c-2.216 0-4 1.784-4 4v8c0 2.216 1.784 4 4 4h8c2.216 0 4-1.784 4-4v-8c0-2.216-1.784-4-4-4zm18 0c-2.216 0-4 1.784-4 4v8c0 2.216 1.784 4 4 4h8c2.216 0 4-1.784 4-4v-8c0-2.216-1.784-4-4-4zm52 0c-2.216 0-4 1.784-4 4v8c0 2.216 1.784 4 4 4h8c2.216 0 4-1.784 4-4v-8c0-2.216-1.784-4-4-4zm18 0c-2.216 0-4 1.784-4 4v8c0 2.216 1.784 4 4 4h8c2.216 0 4-1.784 4-4v-8c0-2.216-1.784-4-4-4zm18 0c-2.216 0-4 1.784-4 4v8c0 2.216 1.784 4 4 4h8c2.216 0 4-1.784 4-4v-8c0-2.216-1.784-4-4-4zm34 0c-2.216 0-4 1.784-4 4v8c0 2.216 1.784 4 4 4h8c2.216 0 4-1.784 4-4v-8c0-2.216-1.784-4-4-4zm36 0c-2.216 0-4 1.784-4 4v8c0 2.216 1.784 4 4 4h8c2.216 0 4-1.784 4-4v-8c0-2.216-1.784-4-4-4zm18 0c-2.216 0-4 1.784-4 4v8c0 2.216 1.784 4 4 4h8c2.216 0 4-1.784 4-4v-8c0-2.216-1.784-4-4-4zm34 0c-2.216 0-4 1.784-4 4v8c0 2.216 1.784 4 4 4h8c2.216 0 4-1.784 4-4v-8c0-2.216-1.784-4-4-4zm18 0c-2.216 0-4 1.784-4 4v8c0 2.216 1.784 4 4 4h8c2.216 0 4-1.784 4-4v-8c0-2.216-1.784-4-4-4zm36 0c-2.216 0-4 1.784-4 4v8c0 2.216 1.784 4 4 4h8c2.216 0 4-1.784 4-4v-8c0-2.216-1.784-4-4-4zm34 0c-2.216 0-4 1.784-4 4v8c0 2.216 1.784 4 4 4h8c2.216 0 4-1.784 4-4v-8c0-2.216-1.784-4-4-4zm18 0c-2.216 0-4 1.784-4 4v8c0 2.216 1.784 4 4 4h8c2.216 0 4-1.784 4-4v-8c0-2.216-1.784-4-4-4zm18 0c-2.216 0-4 1.784-4 4v8c0 2.216 1.784 4 4 4h8c2.216 0 4-1.784 4-4v-8c0-2.216-1.784-4-4-4zm52 0c-2.216 0-4 1.784-4 4v8c0 2.216 1.784 4 4 4h8c2.216 0 4-1.784 4-4v-8c0-2.216-1.784-4-4-4zm18 0c-2.216 0-4 1.784-4 4v8c0 2.216 1.784 4 4 4h8c2.216 0 4-1.784 4-4v-8c0-2.216-1.784-4-4-4zm18 0c-2.216 0-4 1.784-4 4v8c0 2.216 1.784 4 4 4h8c2.216 0 4-1.784 4-4v-8c0-2.216-1.784-4-4-4zm18 0c-2.216 0-4 1.784-4 4v8c0 2.216 1.784 4 4 4h8c2.216 0 4-1.784 4-4v-8c0-2.216-1.784-4-4-4zm-564 18c-2.216 0-4 1.784-4 4v8c0 2.216 1.784 4 4 4h8c2.216 0 4-1.784 4-4v-8c0-2.216-1.784-4-4-4zm36 0c-2.216 0-4 1.784-4 4v8c0 2.216 1.784 4 4 4h8c2.216 0 4-1.784 4-4v-8c0-2.216-1.784-4-4-4zm70 0c-2.216 0-4 1.784-4 4v8c0 2.216 1.784 4 4 4h8c2.216 0 4-1.784 4-4v-8c0-2.216-1.784-4-4-4zm18 0c-2.216 0-4 1.784-4 4v8c0 2.216 1.784 4 4 4h8c2.216 0 4-1.784 4-4v-8c0-2.216-1.784-4-4-4zm52 0c-2.216 0-4 1.784-4 4v8c0 2.216 1.784 4 4 4h8c2.216 0 4-1.784 4-4v-8c0-2.216-1.784-4-4-4zm18 0c-2.216 0-4 1.784-4 4v8c0 2.216 1.784 4 4 4h8c2.216 0 4-1.784 4-4v-8c0-2.216-1.784-4-4-4zm18 0c-2.216 0-4 1.784-4 4v8c0 2.216 1.784 4 4 4h8c2.216 0 4-1.784 4-4v-8c0-2.216-1.784-4-4-4zm34 0c-2.216 0-4 1.784-4 4v8c0 2.216 1.784 4 4 4h8c2.216 0 4-1.784 4-4v-8c0-2.216-1.784-4-4-4zm36 0c-2.216 0-4 1.784-4 4v8c0 2.216 1.784 4 4 4h8c2.216 0 4-1.784 4-4v-8c0-2.216-1.784-4-4-4zm18 0c-2.216 0-4 1.784-4 4v8c0 2.216 1.784 4 4 4h8c2.216 0 4-1.784 4-4v-8c0-2.216-1.784-4-4-4zm34 0c-2.216 0-4 1.784-4 4v8c0 2.216 1.784 4 4 4h8c2.216 0 4-1.784 4-4v-8c0-2.216-1.784-4-4-4zm18 0c-2.216 0-4 1.784-4 4v8c0 2.216 1.784 4 4 4h8c2.216 0 4-1.784 4-4v-8c0-2.216-1.784-4-4-4zm36 0c-2.216 0-4 1.784-4 4v8c0 2.216 1.784 4 4 4h8c2.216 0 4-1.784 4-4v-8c0-2.216-1.784-4-4-4zm34 0c-2.216 0-4 1.784-4 4v8c0 2.216 1.784 4 4 4h8c2.216 0 4-1.784 4-4v-8c0-2.216-1.784-4-4-4zm18 0c-2.216 0-4 1.784-4 4v8c0 2.216 1.784 4 4 4h8c2.216 0 4-1.784 4-4v-8c0-2.216-1.784-4-4-4zm18 0c-2.216 0-4 1.784-4 4v8c0 2.216 1.784 4 4 4h8c2.216 0 4-1.784 4-4v-8c0-2.216-1.784-4-4-4zm52 0c-2.216 0-4 1.784-4 4v8c0 2.216 1.784 4 4 4h8c2.216 0 4-1.784 4-4v-8c0-2.216-1.784-4-4-4zm18 0c-2.216 0-4 1.784-4 4v8c0 2.216 1.784 4 4 4h8c2.216 0 4-1.784 4-4v-8c0-2.216-1.784-4-4-4zm18 0c-2.216 0-4 1.784-4 4v8c0 2.216 1.784 4 4 4h8c2.216 0 4-1.784 4-4v-8c0-2.216-1.784-4-4-4zm18 0c-2.216 0-4 1.784-4 4v8c0 2.216 1.784 4 4 4h8c2.216 0 4-1.784 4-4v-8c0-2.216-1.784-4-4-4zm-582 35c-2.216 0-4 1.784-4 4v8c0 2.216 1.784 4 4 4h8c2.216 0 4-1.784 4-4v-8c0-2.216-1.784-4-4-4zm106 0c-2.216 0-4 1.784-4 4v8c0 2.216 1.784 4 4 4h8c2.216 0 4-1.784 4-4v-8c0-2.216-1.784-4-4-4zm106 0c-2.216 0-4 1.784-4 4v8c0 2.216 1.784 4 4 4h8c2.216 0 4-1.784 4-4v-8c0-2.216-1.784-4-4-4zm106 0c-2.216 0-4 1.784-4 4v8c0 2.216 1.784 4 4 4h8c2.216 0 4-1.784 4-4v-8c0-2.216-1.784-4-4-4zm34 0c-2.216 0-4 1.784-4 4v8c0 2.216 1.784 4 4 4h8c2.216 0 4-1.784 4-4v-8c0-2.216-1.784-4-4-4zm18 0c-2.216 0-4 1.784-4 4v8c0 2.216 1.784 4 4 4h8c2.216 0 4-1.784 4-4v-8c0-2.216-1.784-4-4-4zm70 0c-2.216 0-4 1.784-4 4v8c0 2.216 1.784 4 4 4h8c2.216 0 4-1.784 4-4v-8c0-2.216-1.784-4-4-4zm36 0c-2.216 0-4 1.784-4 4v8c0 2.216 1.784 4 4 4h8c2.216 0 4-1.784 4-4v-8c0-2.216-1.784-4-4-4zm52 0c-2.216 0-4 1.784-4 4v8c0 2.216 1.784 4 4 4h8c2.216 0 4-1.784 4-4v-8c0-2.216-1.784-4-4-4zm54 0c-2.216 0-4 1.784-4 4v8c0 2.216 1.784 4 4 4h8c2.216 0 4-1.784 4-4v-8c0-2.216-1.784-4-4-4zm52 0c-2.216 0-4 1.784-4 4v8c0 2.216 1.784 4 4 4h8c2.216 0 4-1.784 4-4v-8c0-2.216-1.784-4-4-4zm18 0c-2.216 0-4 1.784-4 4v8c0 2.216 1.784 4 4 4h8c2.216 0 4-1.784 4-4v-8c0-2.216-1.784-4-4-4zm-652 18c-2.216 0-4 1.784-4 4v8c0 2.216 1.784 4 4 4h8c2.216 0 4-1.784 4-4v-8c0-2.216-1.784-4-4-4zm106 0c-2.216 0-4 1.784-4 4v8c0 2.216 1.784 4 4 4h8c2.216 0 4-1.784 4-4v-8c0-2.216-1.784-4-4-4zm106 0c-2.216 0-4 1.784-4 4v8c0 2.216 1.784 4 4 4h8c2.216 0 4-1.784 4-4v-8c0-2.216-1.784-4-4-4zm106 0c-2.216 0-4 1.784-4 4v8c0 2.216 1.784 4 4 4h8c2.216 0 4-1.784 4-4v-8c0-2.216-1.784-4-4-4zm34 0c-2.216 0-4 1.784-4 4v8c0 2.216 1.784 4 4 4h8c2.216 0 4-1.784 4-4v-8c0-2.216-1.784-4-4-4zm18 0c-2.216 0-4 1.784-4 4v8c0 2.216 1.784 4 4 4h8c2.216 0 4-1.784 4-4v-8c0-2.216-1.784-4-4-4zm70 0c-2.216 0-4 1.784-4 4v8c0 2.216 1.784 4 4 4h8c2.216 0 4-1.784 4-4v-8c0-2.216-1.784-4-4-4zm36 0c-2.216 0-4 1.784-4 4v8c0 2.216 1.784 4 4 4h8c2.216 0 4-1.784 4-4v-8c0-2.216-1.784-4-4-4zm52 0c-2.216 0-4 1.784-4 4v8c0 2.216 1.784 4 4 4h8c2.216 0 4-1.784 4-4v-8c0-2.216-1.784-4-4-4zm54 0c-2.216 0-4 1.784-4 4v8c0 2.216 1.784 4 4 4h8c2.216 0 4-1.784 4-4v-8c0-2.216-1.784-4-4-4zm52 0c-2.216 0-4 1.784-4 4v8c0 2.216 1.784 4 4 4h8c2.216 0 4-1.784 4-4v-8c0-2.216-1.784-4-4-4zm18 0c-2.216 0-4 1.784-4 4v8c0 2.216 1.784 4 4 4h8c2.216 0 4-1.784 4-4v-8c0-2.216-1.784-4-4-4zm-652 18c-2.216 0-4 1.784-4 4v8c0 2.216 1.784 4 4 4h8c2.216 0 4-1.784 4-4v-8c0-2.216-1.784-4-4-4zm106 0c-2.216 0-4 1.784-4 4v8c0 2.216 1.784 4 4 4h8c2.216 0 4-1.784 4-4v-8c0-2.216-1.784-4-4-4zm106 0c-2.216 0-4 1.784-4 4v8c0 2.216 1.784 4 4 4h8c2.216 0 4-1.784 4-4v-8c0-2.216-1.784-4-4-4zm106 0c-2.216 0-4 1.784-4 4v8c0 2.216 1.784 4 4 4h8c2.216 0 4-1.784 4-4v-8c0-2.216-1.784-4-4-4zm34 0c-2.216 0-4 1.784-4 4v8c0 2.216 1.784 4 4 4h8c2.216 0 4-1.784 4-4v-8c0-2.216-1.784-4-4-4zm18 0c-2.216 0-4 1.784-4 4v8c0 2.216 1.784 4 4 4h8c2.216 0 4-1.784 4-4v-8c0-2.216-1.784-4-4-4zm70 0c-2.216 0-4 1.784-4 4v8c0 2.216 1.784 4 4 4h8c2.216 0 4-1.784 4-4v-8c0-2.216-1.784-4-4-4zm36 0c-2.216 0-4 1.784-4 4v8c0 2.216 1.784 4 4 4h8c2.216 0 4-1.784 4-4v-8c0-2.216-1.784-4-4-4zm52 0c-2.216 0-4 1.784-4 4v8c0 2.216 1.784 4 4 4h8c2.216 0 4-1.784 4-4v-8c0-2.216-1.784-4-4-4zm54 0c-2.216 0-4 1.784-4 4v8c0 2.216 1.784 4 4 4h8c2.216 0 4-1.784 4-4v-8c0-2.216-1.784-4-4-4zm52 0c-2.216 0-4 1.784-4 4v8c0 2.216 1.784 4 4 4h8c2.216 0 4-1.784 4-4v-8c0-2.216-1.784-4-4-4zm18 0c-2.216 0-4 1.784-4 4v8c0 2.216 1.784 4 4 4h8c2.216 0 4-1.784 4-4v-8c0-2.216-1.784-4-4-4zm-652 18c-2.216 0-4 1.784-4 4v8c0 2.216 1.784 4 4 4h8c2.216 0 4-1.784 4-4v-8c0-2.216-1.784-4-4-4zm106 0c-2.216 0-4 1.784-4 4v8c0 2.216 1.784 4 4 4h8c2.216 0 4-1.784 4-4v-8c0-2.216-1.784-4-4-4zm106 0c-2.216 0-4 1.784-4 4v8c0 2.216 1.784 4 4 4h8c2.216 0 4-1.784 4-4v-8c0-2.216-1.784-4-4-4zm106 0c-2.216 0-4 1.784-4 4v8c0 2.216 1.784 4 4 4h8c2.216 0 4-1.784 4-4v-8c0-2.216-1.784-4-4-4zm34 0c-2.216 0-4 1.784-4 4v8c0 2.216 1.784 4 4 4h8c2.216 0 4-1.784 4-4v-8c0-2.216-1.784-4-4-4zm18 0c-2.216 0-4 1.784-4 4v8c0 2.216 1.784 4 4 4h8c2.216 0 4-1.784 4-4v-8c0-2.216-1.784-4-4-4zm70 0c-2.216 0-4 1.784-4 4v8c0 2.216 1.784 4 4 4h8c2.216 0 4-1.784 4-4v-8c0-2.216-1.784-4-4-4zm36 0c-2.216 0-4 1.784-4 4v8c0 2.216 1.784 4 4 4h8c2.216 0 4-1.784 4-4v-8c0-2.216-1.784-4-4-4zm52 0c-2.216 0-4 1.784-4 4v8c0 2.216 1.784 4 4 4h8c2.216 0 4-1.784 4-4v-8c0-2.216-1.784-4-4-4zm54 0c-2.216 0-4 1.784-4 4v8c0 2.216 1.784 4 4 4h8c2.216 0 4-1.784 4-4v-8c0-2.216-1.784-4-4-4zm52 0c-2.216 0-4 1.784-4 4v8c0 2.216 1.784 4 4 4h8c2.216 0 4-1.784 4-4v-8c0-2.216-1.784-4-4-4zm18 0c-2.216 0-4 1.784-4 4v8c0 2.216 1.784 4 4 4h8c2.216 0 4-1.784 4-4v-8c0-2.216-1.784-4-4-4z" fill="url(#linearGradient1281)"/><path d="m54 64c-2.216 0-4 1.784-4 4v8c0 2.216 1.784 4 4 4h8c2.216 0 4-1.784 4-4v-8c0-2.216-1.784-4-4-4zm18 0c-2.216 0-4 1.784-4 4v8c0 2.216 1.784 4 4 4h8c2.216 0 4-1.784 4-4v-8c0-2.216-1.784-4-4-4zm18 0c-2.216 0-4 1.784-4 4v8c0 2.216 1.784 4 4 4h8c2.216 0 4-1.784 4-4v-8c0-2.216-1.784-4-4-4zm34 0c-2.216 0-4 1.784-4 4v8c0 2.216 1.784 4 4 4h8c2.216 0 4-1.784 4-4v-8c0-2.216-1.784-4-4-4zm36 0c-2.216 0-4 1.784-4 4v8c0 2.216 1.784 4 4 4h8c2.216 0 4-1.784 4-4v-8c0-2.216-1.784-4-4-4zm18 0c-2.216 0-4 1.784-4 4v8c0 2.216 1.784 4 4 4h8c2.216 0 4-1.784 4-4v-8c0-2.216-1.784-4-4-4zm34 0c-2.216 0-4 1.784-4 4v8c0 2.216 1.784 4 4 4h8c2.216 0 4-1.784 4-4v-8c0-2.216-1.784-4-4-4zm18 0c-2.216 0-4 1.784-4 4v8c0 2.216 1.784 4 4 4h8c2.216 0 4-1.784 4-4v-8c0-2.216-1.784-4-4-4zm36 0c-2.216 0-4 1.784-4 4v8c0 2.216 1.784 4 4 4h8c2.216 0 4-1.784 4-4v-8c0-2.216-1.784-4-4-4zm34 0c-2.216 0-4 1.784-4 4v8c0 2.216 1.784 4 4 4h8c2.216 0 4-1.784 4-4v-8c0-2.216-1.784-4-4-4zm18 0c-2.216 0-4 1.784-4 4v8c0 2.216 1.784 4 4 4h8c2.216 0 4-1.784 4-4v-8c0-2.216-1.784-4-4-4zm18 0c-2.216 0-4 1.784-4 4v8c0 2.216 1.784 4 4 4h8c2.216 0 4-1.784 4-4v-8c0-2.216-1.784-4-4-4zm88 0c-2.216 0-4 1.784-4 4v8c0 2.216 1.784 4 4 4h8c2.216 0 4-1.784 4-4v-8c0-2.216-1.784-4-4-4zm18 0c-2.216 0-4 1.784-4 4v8c0 2.216 1.784 4 4 4h8c2.216 0 4-1.784 4-4v-8c0-2.216-1.784-4-4-4zm52 0c-2.216 0-4 1.784-4 4v8c0 2.216 1.784 4 4 4h8c2.216 0 4-1.784 4-4v-8c0-2.216-1.784-4-4-4zm36 0c-2.216 0-4 1.784-4 4v8c0 2.216 1.784 4 4 4h8c2.216 0 4-1.784 4-4v-8c0-2.216-1.784-4-4-4zm52 0c-2.216 0-4 1.784-4 4v8c0 2.216 1.784 4 4 4h8c2.216 0 4-1.784 4-4v-8c0-2.216-1.784-4-4-4zm18 0c-2.216 0-4 1.784-4 4v8c0 2.216 1.784 4 4 4h8c2.216 0 4-1.784 4-4v-8c0-2.216-1.784-4-4-4zm52 0c-2.216 0-4 1.784-4 4v8c0 2.216 1.784 4 4 4h8c2.216 0 4-1.784 4-4v-8c0-2.216-1.784-4-4-4zm54 0c-2.216 0-4 1.784-4 4v8c0 2.216 1.784 4 4 4h8c2.216 0 4-1.784 4-4v-8c0-2.216-1.784-4-4-4zm-652 18c-2.216 0-4 1.784-4 4v8c0 2.216 1.784 4 4 4h8c2.216 0 4-1.784 4-4v-8c0-2.216-1.784-4-4-4zm18 0c-2.216 0-4 1.784-4 4v8c0 2.216 1.784 4 4 4h8c2.216 0 4-1.784 4-4v-8c0-2.216-1.784-4-4-4zm18 0c-2.216 0-4 1.784-4 4v8c0 2.216 1.784 4 4 4h8c2.216 0 4-1.784 4-4v-8c0-2.216-1.784-4-4-4zm34 0c-2.216 0-4 1.784-4 4v8c0 2.216 1.784 4 4 4h8c2.216 0 4-1.784 4-4v-8c0-2.216-1.784-4-4-4zm36 0c-2.216 0-4 1.784-4 4v8c0 2.216 1.784 4 4 4h8c2.216 0 4-1.784 4-4v-8c0-2.216-1.784-4-4-4zm18 0c-2.216 0-4 1.784-4 4v8c0 2.216 1.784 4 4 4h8c2.216 0 4-1.784 4-4v-8c0-2.216-1.784-4-4-4zm34 0c-2.216 0-4 1.784-4 4v8c0 2.216 1.784 4 4 4h8c2.216 0 4-1.784 4-4v-8c0-2.216-1.784-4-4-4zm18 0c-2.216 0-4 1.784-4 4v8c0 2.216 1.784 4 4 4h8c2.216 0 4-1.784 4-4v-8c0-2.216-1.784-4-4-4zm36 0c-2.216 0-4 1.784-4 4v8c0 2.216 1.784 4 4 4h8c2.216 0 4-1.784 4-4v-8c0-2.216-1.784-4-4-4zm34 0c-2.216 0-4 1.784-4 4v8c0 2.216 1.784 4 4 4h8c2.216 0 4-1.784 4-4v-8c0-2.216-1.784-4-4-4zm18 0c-2.216 0-4 1.784-4 4v8c0 2.216 1.784 4 4 4h8c2.216 0 4-1.784 4-4v-8c0-2.216-1.784-4-4-4zm18 0c-2.216 0-4 1.784-4 4v8c0 2.216 1.784 4 4 4h8c2.216 0 4-1.784 4-4v-8c0-2.216-1.784-4-4-4zm88 0c-2.216 0-4 1.784-4 4v8c0 2.216 1.784 4 4 4h8c2.216 0 4-1.784 4-4v-8c0-2.216-1.784-4-4-4zm18 0c-2.216 0-4 1.784-4 4v8c0 2.216 1.784 4 4 4h8c2.216 0 4-1.784 4-4v-8c0-2.216-1.784-4-4-4zm52 0c-2.216 0-4 1.784-4 4v8c0 2.216 1.784 4 4 4h8c2.216 0 4-1.784 4-4v-8c0-2.216-1.784-4-4-4zm36 0c-2.216 0-4 1.784-4 4v8c0 2.216 1.784 4 4 4h8c2.216 0 4-1.784 4-4v-8c0-2.216-1.784-4-4-4zm52 0c-2.216 0-4 1.784-4 4v8c0 2.216 1.784 4 4 4h8c2.216 0 4-1.784 4-4v-8c0-2.216-1.784-4-4-4zm18 0c-2.216 0-4 1.784-4 4v8c0 2.216 1.784 4 4 4h8c2.216 0 4-1.784 4-4v-8c0-2.216-1.784-4-4-4zm52 0c-2.216 0-4 1.784-4 4v8c0 2.216 1.784 4 4 4h8c2.216 0 4-1.784 4-4v-8c0-2.216-1.784-4-4-4zm54 0c-2.216 0-4 1.784-4 4v8c0 2.216 1.784 4 4 4h8c2.216 0 4-1.784 4-4v-8c0-2.216-1.784-4-4-4zm-652 18c-2.216 0-4 1.784-4 4v8c0 2.216 1.784 4 4 4h8c2.216 0 4-1.784 4-4v-8c0-2.216-1.784-4-4-4zm18 0c-2.216 0-4 1.784-4 4v8c0 2.216 1.784 4 4 4h8c2.216 0 4-1.784 4-4v-8c0-2.216-1.784-4-4-4zm18 0c-2.216 0-4 1.784-4 4v8c0 2.216 1.784 4 4 4h8c2.216 0 4-1.784 4-4v-8c0-2.216-1.784-4-4-4zm34 0c-2.216 0-4 1.784-4 4v8c0 2.216 1.784 4 4 4h8c2.216 0 4-1.784 4-4v-8c0-2.216-1.784-4-4-4zm36 0c-2.216 0-4 1.784-4 4v8c0 2.216 1.784 4 4 4h8c2.216 0 4-1.784 4-4v-8c0-2.216-1.784-4-4-4zm18 0c-2.216 0-4 1.784-4 4v8c0 2.216 1.784 4 4 4h8c2.216 0 4-1.784 4-4v-8c0-2.216-1.784-4-4-4zm34 0c-2.216 0-4 1.784-4 4v8c0 2.216 1.784 4 4 4h8c2.216 0 4-1.784 4-4v-8c0-2.216-1.784-4-4-4zm18 0c-2.216 0-4 1.784-4 4v8c0 2.216 1.784 4 4 4h8c2.216 0 4-1.784 4-4v-8c0-2.216-1.784-4-4-4zm36 0c-2.216 0-4 1.784-4 4v8c0 2.216 1.784 4 4 4h8c2.216 0 4-1.784 4-4v-8c0-2.216-1.784-4-4-4zm34 0c-2.216 0-4 1.784-4 4v8c0 2.216 1.784 4 4 4h8c2.216 0 4-1.784 4-4v-8c0-2.216-1.784-4-4-4zm18 0c-2.216 0-4 1.784-4 4v8c0 2.216 1.784 4 4 4h8c2.216 0 4-1.784 4-4v-8c0-2.216-1.784-4-4-4zm18 0c-2.216 0-4 1.784-4 4v8c0 2.216 1.784 4 4 4h8c2.216 0 4-1.784 4-4v-8c0-2.216-1.784-4-4-4zm88 0c-2.216 0-4 1.784-4 4v8c0 2.216 1.784 4 4 4h8c2.216 0 4-1.784 4-4v-8c0-2.216-1.784-4-4-4zm18 0c-2.216 0-4 1.784-4 4v8c0 2.216 1.784 4 4 4h8c2.216 0 4-1.784 4-4v-8c0-2.216-1.784-4-4-4zm52 0c-2.216 0-4 1.784-4 4v8c0 2.216 1.784 4 4 4h8c2.216 0 4-1.784 4-4v-8c0-2.216-1.784-4-4-4zm36 0c-2.216 0-4 1.784-4 4v8c0 2.216 1.784 4 4 4h8c2.216 0 4-1.784 4-4v-8c0-2.216-1.784-4-4-4zm52 0c-2.216 0-4 1.784-4 4v8c0 2.216 1.784 4 4 4h8c2.216 0 4-1.784 4-4v-8c0-2.216-1.784-4-4-4zm18 0c-2.216 0-4 1.784-4 4v8c0 2.216 1.784 4 4 4h8c2.216 0 4-1.784 4-4v-8c0-2.216-1.784-4-4-4zm52 0c-2.216 0-4 1.784-4 4v8c0 2.216 1.784 4 4 4h8c2.216 0 4-1.784 4-4v-8c0-2.216-1.784-4-4-4zm54 0c-2.216 0-4 1.784-4 4v8c0 2.216 1.784 4 4 4h8c2.216 0 4-1.784 4-4v-8c0-2.216-1.784-4-4-4zm-652 18c-2.216 0-4 1.784-4 4v8c0 2.216 1.784 4 4 4h8c2.216 0 4-1.784 4-4v-8c0-2.216-1.784-4-4-4zm18 0c-2.216 0-4 1.784-4 4v8c0 2.216 1.784 4 4 4h8c2.216 0 4-1.784 4-4v-8c0-2.216-1.784-4-4-4zm18 0c-2.216 0-4 1.784-4 4v8c0 2.216 1.784 4 4 4h8c2.216 0 4-1.784 4-4v-8c0-2.216-1.784-4-4-4zm34 0c-2.216 0-4 1.784-4 4v8c0 2.216 1.784 4 4 4h8c2.216 0 4-1.784 4-4v-8c0-2.216-1.784-4-4-4zm36 0c-2.216 0-4 1.784-4 4v8c0 2.216 1.784 4 4 4h8c2.216 0 4-1.784 4-4v-8c0-2.216-1.784-4-4-4zm18 0c-2.216 0-4 1.784-4 4v8c0 2.216 1.784 4 4 4h8c2.216 0 4-1.784 4-4v-8c0-2.216-1.784-4-4-4zm34 0c-2.216 0-4 1.784-4 4v8c0 2.216 1.784 4 4 4h8c2.216 0 4-1.784 4-4v-8c0-2.216-1.784-4-4-4zm18 0c-2.216 0-4 1.784-4 4v8c0 2.216 1.784 4 4 4h8c2.216 0 4-1.784 4-4v-8c0-2.216-1.784-4-4-4zm36 0c-2.216 0-4 1.784-4 4v8c0 2.216 1.784 4 4 4h8c2.216 0 4-1.784 4-4v-8c0-2.216-1.784-4-4-4zm34 0c-2.216 0-4 1.784-4 4v8c0 2.216 1.784 4 4 4h8c2.216 0 4-1.784 4-4v-8c0-2.216-1.784-4-4-4zm18 0c-2.216 0-4 1.784-4 4v8c0 2.216 1.784 4 4 4h8c2.216 0 4-1.784 4-4v-8c0-2.216-1.784-4-4-4zm18 0c-2.216 0-4 1.784-4 4v8c0 2.216 1.784 4 4 4h8c2.216 0 4-1.784 4-4v-8c0-2.216-1.784-4-4-4zm88 0c-2.216 0-4 1.784-4 4v8c0 2.216 1.784 4 4 4h8c2.216 0 4-1.784 4-4v-8c0-2.216-1.784-4-4-4zm18 0c-2.216 0-4 1.784-4 4v8c0 2.216 1.784 4 4 4h8c2.216 0 4-1.784 4-4v-8c0-2.216-1.784-4-4-4zm52 0c-2.216 0-4 1.784-4 4v8c0 2.216 1.784 4 4 4h8c2.216 0 4-1.784 4-4v-8c0-2.216-1.784-4-4-4zm36 0c-2.216 0-4 1.784-4 4v8c0 2.216 1.784 4 4 4h8c2.216 0 4-1.784 4-4v-8c0-2.216-1.784-4-4-4zm52 0c-2.216 0-4 1.784-4 4v8c0 2.216 1.784 4 4 4h8c2.216 0 4-1.784 4-4v-8c0-2.216-1.784-4-4-4zm18 0c-2.216 0-4 1.784-4 4v8c0 2.216 1.784 4 4 4h8c2.216 0 4-1.784 4-4v-8c0-2.216-1.784-4-4-4zm52 0c-2.216 0-4 1.784-4 4v8c0 2.216 1.784 4 4 4h8c2.216 0 4-1.784 4-4v-8c0-2.216-1.784-4-4-4zm54 0c-2.216 0-4 1.784-4 4v8c0 2.216 1.784 4 4 4h8c2.216 0 4-1.784 4-4v-8c0-2.216-1.784-4-4-4zm-670 34c-2.216 0-4 1.784-4 4v8c0 2.216 1.784 4 4 4h8c2.216 0 4-1.784 4-4v-8c0-2.216-1.784-4-4-4zm36 0c-2.216 0-4 1.784-4 4v8c0 2.216 1.784 4 4 4h8c2.216 0 4-1.784 4-4v-8c0-2.216-1.784-4-4-4zm52 0c-2.216 0-4 1.784-4 4v8c0 2.216 1.784 4 4 4h8c2.216 0 4-1.784 4-4v-8c0-2.216-1.784-4-4-4zm18 0c-2.216 0-4 1.784-4 4v8c0 2.216 1.784 4 4 4h8c2.216 0 4-1.784 4-4v-8c0-2.216-1.784-4-4-4zm70 0c-2.216 0-4 1.784-4 4v8c0 2.216 1.784 4 4 4h8c2.216 0 4-1.784 4-4v-8c0-2.216-1.784-4-4-4zm106 0c-2.216 0-4 1.784-4 4v8c0 2.216 1.784 4 4 4h8c2.216 0 4-1.784 4-4v-8c0-2.216-1.784-4-4-4zm106 0c-2.216 0-4 1.784-4 4v8c0 2.216 1.784 4 4 4h8c2.216 0 4-1.784 4-4v-8c0-2.216-1.784-4-4-4zm106 0c-2.216 0-4 1.784-4 4v8c0 2.216 1.784 4 4 4h8c2.216 0 4-1.784 4-4v-8c0-2.216-1.784-4-4-4zm122 0c-2.216 0-4 1.784-4 4v8c0 2.216 1.784 4 4 4h8c2.216 0 4-1.784 4-4v-8c0-2.216-1.784-4-4-4zm18 0c-2.216 0-4 1.784-4 4v8c0 2.216 1.784 4 4 4h8c2.216 0 4-1.784 4-4v-8c0-2.216-1.784-4-4-4zm18 0c-2.216 0-4 1.784-4 4v8c0 2.216 1.784 4 4 4h8c2.216 0 4-1.784 4-4v-8c0-2.216-1.784-4-4-4zm18 0c-2.216 0-4 1.784-4 4v8c0 2.216 1.784 4 4 4h8c2.216 0 4-1.784 4-4v-8c0-2.216-1.784-4-4-4zm-670 18c-2.216 0-4 1.784-4 4v8c0 2.216 1.784 4 4 4h8c2.216 0 4-1.784 4-4v-8c0-2.216-1.784-4-4-4zm36 0c-2.216 0-4 1.784-4 4v8c0 2.216 1.784 4 4 4h8c2.216 0 4-1.784 4-4v-8c0-2.216-1.784-4-4-4zm52 0c-2.216 0-4 1.784-4 4v8c0 2.216 1.784 4 4 4h8c2.216 0 4-1.784 4-4v-8c0-2.216-1.784-4-4-4zm18 0c-2.216 0-4 1.784-4 4v8c0 2.216 1.784 4 4 4h8c2.216 0 4-1.784 4-4v-8c0-2.216-1.784-4-4-4zm70 0c-2.216 0-4 1.784-4 4v8c0 2.216 1.784 4 4 4h8c2.216 0 4-1.784 4-4v-8c0-2.216-1.784-4-4-4zm106 0c-2.216 0-4 1.784-4 4v8c0 2.216 1.784 4 4 4h8c2.216 0 4-1.784 4-4v-8c0-2.216-1.784-4-4-4zm106 0c-2.216 0-4 1.784-4 4v8c0 2.216 1.784 4 4 4h8c2.216 0 4-1.784 4-4v-8c0-2.216-1.784-4-4-4zm106 0c-2.216 0-4 1.784-4 4v8c0 2.216 1.784 4 4 4h8c2.216 0 4-1.784 4-4v-8c0-2.216-1.784-4-4-4zm122 0c-2.216 0-4 1.784-4 4v8c0 2.216 1.784 4 4 4h8c2.216 0 4-1.784 4-4v-8c0-2.216-1.784-4-4-4zm18 0c-2.216 0-4 1.784-4 4v8c0 2.216 1.784 4 4 4h8c2.216 0 4-1.784 4-4v-8c0-2.216-1.784-4-4-4zm18 0c-2.216 0-4 1.784-4 4v8c0 2.216 1.784 4 4 4h8c2.216 0 4-1.784 4-4v-8c0-2.216-1.784-4-4-4zm18 0c-2.216 0-4 1.784-4 4v8c0 2.216 1.784 4 4 4h8c2.216 0 4-1.784 4-4v-8c0-2.216-1.784-4-4-4zm-670 18c-2.216 0-4 1.784-4 4v8c0 2.216 1.784 4 4 4h8c2.216 0 4-1.784 4-4v-8c0-2.216-1.784-4-4-4zm36 0c-2.216 0-4 1.784-4 4v8c0 2.216 1.784 4 4 4h8c2.216 0 4-1.784 4-4v-8c0-2.216-1.784-4-4-4zm52 0c-2.216 0-4 1.784-4 4v8c0 2.216 1.784 4 4 4h8c2.216 0 4-1.784 4-4v-8c0-2.216-1.784-4-4-4zm18 0c-2.216 0-4 1.784-4 4v8c0 2.216 1.784 4 4 4h8c2.216 0 4-1.784 4-4v-8c0-2.216-1.784-4-4-4zm70 0c-2.216 0-4 1.784-4 4v8c0 2.216 1.784 4 4 4h8c2.216 0 4-1.784 4-4v-8c0-2.216-1.784-4-4-4zm106 0c-2.216 0-4 1.784-4 4v8c0 2.216 1.784 4 4 4h8c2.216 0 4-1.784 4-4v-8c0-2.216-1.784-4-4-4zm106 0c-2.216 0-4 1.784-4 4v8c0 2.216 1.784 4 4 4h8c2.216 0 4-1.784 4-4v-8c0-2.216-1.784-4-4-4zm106 0c-2.216 0-4 1.784-4 4v8c0 2.216 1.784 4 4 4h8c2.216 0 4-1.784 4-4v-8c0-2.216-1.784-4-4-4zm122 0c-2.216 0-4 1.784-4 4v8c0 2.216 1.784 4 4 4h8c2.216 0 4-1.784 4-4v-8c0-2.216-1.784-4-4-4zm18 0c-2.216 0-4 1.784-4 4v8c0 2.216 1.784 4 4 4h8c2.216 0 4-1.784 4-4v-8c0-2.216-1.784-4-4-4zm18 0c-2.216 0-4 1.784-4 4v8c0 2.216 1.784 4 4 4h8c2.216 0 4-1.784 4-4v-8c0-2.216-1.784-4-4-4zm18 0c-2.216 0-4 1.784-4 4v8c0 2.216 1.784 4 4 4h8c2.216 0 4-1.784 4-4v-8c0-2.216-1.784-4-4-4zm-670 18c-2.216 0-4 1.784-4 4v8c0 2.216 1.784 4 4 4h8c2.216 0 4-1.784 4-4v-8c0-2.216-1.784-4-4-4zm36 0c-2.216 0-4 1.784-4 4v8c0 2.216 1.784 4 4 4h8c2.216 0 4-1.784 4-4v-8c0-2.216-1.784-4-4-4zm52 0c-2.216 0-4 1.784-4 4v8c0 2.216 1.784 4 4 4h8c2.216 0 4-1.784 4-4v-8c0-2.216-1.784-4-4-4zm18 0c-2.216 0-4 1.784-4 4v8c0 2.216 1.784 4 4 4h8c2.216 0 4-1.784 4-4v-8c0-2.216-1.784-4-4-4zm70 0c-2.216 0-4 1.784-4 4v8c0 2.216 1.784 4 4 4h8c2.216 0 4-1.784 4-4v-8c0-2.216-1.784-4-4-4zm106 0c-2.216 0-4 1.784-4 4v8c0 2.216 1.784 4 4 4h8c2.216 0 4-1.784 4-4v-8c0-2.216-1.784-4-4-4zm106 0c-2.216 0-4 1.784-4 4v8c0 2.216 1.784 4 4 4h8c2.216 0 4-1.784 4-4v-8c0-2.216-1.784-4-4-4zm106 0c-2.216 0-4 1.784-4 4v8c0 2.216 1.784 4 4 4h8c2.216 0 4-1.784 4-4v-8c0-2.216-1.784-4-4-4zm122 0c-2.216 0-4 1.784-4 4v8c0 2.216 1.784 4 4 4h8c2.216 0 4-1.784 4-4v-8c0-2.216-1.784-4-4-4zm18 0c-2.216 0-4 1.784-4 4v8c0 2.216 1.784 4 4 4h8c2.216 0 4-1.784 4-4v-8c0-2.216-1.784-4-4-4zm18 0c-2.216 0-4 1.784-4 4v8c0 2.216 1.784 4 4 4h8c2.216 0 4-1.784 4-4v-8c0-2.216-1.784-4-4-4zm18 0c-2.216 0-4 1.784-4 4v8c0 2.216 1.784 4 4 4h8c2.216 0 4-1.784 4-4v-8c0-2.216-1.784-4-4-4zm-652 187c-2.216 0-4 1.784-4 4v8c0 2.216 1.784 4 4 4h8c2.216 0 4-1.784 4-4v-8c0-2.216-1.784-4-4-4zm18 0c-2.216 0-4 1.784-4 4v8c0 2.216 1.784 4 4 4h8c2.216 0 4-1.784 4-4v-8c0-2.216-1.784-4-4-4zm18 0c-2.216 0-4 1.784-4 4v8c0 2.216 1.784 4 4 4h8c2.216 0 4-1.784 4-4v-8c0-2.216-1.784-4-4-4zm34 0c-2.216 0-4 1.784-4 4v8c0 2.216 1.784 4 4 4h8c2.216 0 4-1.784 4-4v-8c0-2.216-1.784-4-4-4zm36 0c-2.216 0-4 1.784-4 4v8c0 2.216 1.784 4 4 4h8c2.216 0 4-1.784 4-4v-8c0-2.216-1.784-4-4-4zm18 0c-2.216 0-4 1.784-4 4v8c0 2.216 1.784 4 4 4h8c2.216 0 4-1.784 4-4v-8c0-2.216-1.784-4-4-4zm34 0c-2.216 0-4 1.784-4 4v8c0 2.216 1.784 4 4 4h8c2.216 0 4-1.784 4-4v-8c0-2.216-1.784-4-4-4zm18 0c-2.216 0-4 1.784-4 4v8c0 2.216 1.784 4 4 4h8c2.216 0 4-1.784 4-4v-8c0-2.216-1.784-4-4-4zm36 0c-2.216 0-4 1.784-4 4v8c0 2.216 1.784 4 4 4h8c2.216 0 4-1.784 4-4v-8c0-2.216-1.784-4-4-4zm34 0c-2.216 0-4 1.784-4 4v8c0 2.216 1.784 4 4 4h8c2.216 0 4-1.784 4-4v-8c0-2.216-1.784-4-4-4zm18 0c-2.216 0-4 1.784-4 4v8c0 2.216 1.784 4 4 4h8c2.216 0 4-1.784 4-4v-8c0-2.216-1.784-4-4-4zm18 0c-2.216 0-4 1.784-4 4v8c0 2.216 1.784 4 4 4h8c2.216 0 4-1.784 4-4v-8c0-2.216-1.784-4-4-4zm88 0c-2.216 0-4 1.784-4 4v8c0 2.216 1.784 4 4 4h8c2.216 0 4-1.784 4-4v-8c0-2.216-1.784-4-4-4zm18 0c-2.216 0-4 1.784-4 4v8c0 2.216 1.784 4 4 4h8c2.216 0 4-1.784 4-4v-8c0-2.216-1.784-4-4-4zm52 0c-2.216 0-4 1.784-4 4v8c0 2.216 1.784 4 4 4h8c2.216 0 4-1.784 4-4v-8c0-2.216-1.784-4-4-4zm36 0c-2.216 0-4 1.784-4 4v8c0 2.216 1.784 4 4 4h8c2.216 0 4-1.784 4-4v-8c0-2.216-1.784-4-4-4zm52 0c-2.216 0-4 1.784-4 4v8c0 2.216 1.784 4 4 4h8c2.216 0 4-1.784 4-4v-8c0-2.216-1.784-4-4-4zm18 0c-2.216 0-4 1.784-4 4v8c0 2.216 1.784 4 4 4h8c2.216 0 4-1.784 4-4v-8c0-2.216-1.784-4-4-4zm52 0c-2.216 0-4 1.784-4 4v8c0 2.216 1.784 4 4 4h8c2.216 0 4-1.784 4-4v-8c0-2.216-1.784-4-4-4zm54 0c-2.216 0-4 1.784-4 4v8c0 2.216 1.784 4 4 4h8c2.216 0 4-1.784 4-4v-8c0-2.216-1.784-4-4-4zm-652 18c-2.216 0-4 1.784-4 4v8c0 2.216 1.784 4 4 4h8c2.216 0 4-1.784 4-4v-8c0-2.216-1.784-4-4-4zm18 0c-2.216 0-4 1.784-4 4v8c0 2.216 1.784 4 4 4h8c2.216 0 4-1.784 4-4v-8c0-2.216-1.784-4-4-4zm18 0c-2.216 0-4 1.784-4 4v8c0 2.216 1.784 4 4 4h8c2.216 0 4-1.784 4-4v-8c0-2.216-1.784-4-4-4zm34 0c-2.216 0-4 1.784-4 4v8c0 2.216 1.784 4 4 4h8c2.216 0 4-1.784 4-4v-8c0-2.216-1.784-4-4-4zm36 0c-2.216 0-4 1.784-4 4v8c0 2.216 1.784 4 4 4h8c2.216 0 4-1.784 4-4v-8c0-2.216-1.784-4-4-4zm18 0c-2.216 0-4 1.784-4 4v8c0 2.216 1.784 4 4 4h8c2.216 0 4-1.784 4-4v-8c0-2.216-1.784-4-4-4zm34 0c-2.216 0-4 1.784-4 4v8c0 2.216 1.784 4 4 4h8c2.216 0 4-1.784 4-4v-8c0-2.216-1.784-4-4-4zm18 0c-2.216 0-4 1.784-4 4v8c0 2.216 1.784 4 4 4h8c2.216 0 4-1.784 4-4v-8c0-2.216-1.784-4-4-4zm36 0c-2.216 0-4 1.784-4 4v8c0 2.216 1.784 4 4 4h8c2.216 0 4-1.784 4-4v-8c0-2.216-1.784-4-4-4zm34 0c-2.216 0-4 1.784-4 4v8c0 2.216 1.784 4 4 4h8c2.216 0 4-1.784 4-4v-8c0-2.216-1.784-4-4-4zm18 0c-2.216 0-4 1.784-4 4v8c0 2.216 1.784 4 4 4h8c2.216 0 4-1.784 4-4v-8c0-2.216-1.784-4-4-4zm18 0c-2.216 0-4 1.784-4 4v8c0 2.216 1.784 4 4 4h8c2.216 0 4-1.784 4-4v-8c0-2.216-1.784-4-4-4zm88 0c-2.216 0-4 1.784-4 4v8c0 2.216 1.784 4 4 4h8c2.216 0 4-1.784 4-4v-8c0-2.216-1.784-4-4-4zm18 0c-2.216 0-4 1.784-4 4v8c0 2.216 1.784 4 4 4h8c2.216 0 4-1.784 4-4v-8c0-2.216-1.784-4-4-4zm52 0c-2.216 0-4 1.784-4 4v8c0 2.216 1.784 4 4 4h8c2.216 0 4-1.784 4-4v-8c0-2.216-1.784-4-4-4zm36 0c-2.216 0-4 1.784-4 4v8c0 2.216 1.784 4 4 4h8c2.216 0 4-1.784 4-4v-8c0-2.216-1.784-4-4-4zm52 0c-2.216 0-4 1.784-4 4v8c0 2.216 1.784 4 4 4h8c2.216 0 4-1.784 4-4v-8c0-2.216-1.784-4-4-4zm18 0c-2.216 0-4 1.784-4 4v8c0 2.216 1.784 4 4 4h8c2.216 0 4-1.784 4-4v-8c0-2.216-1.784-4-4-4zm52 0c-2.216 0-4 1.784-4 4v8c0 2.216 1.784 4 4 4h8c2.216 0 4-1.784 4-4v-8c0-2.216-1.784-4-4-4zm54 0c-2.216 0-4 1.784-4 4v8c0 2.216 1.784 4 4 4h8c2.216 0 4-1.784 4-4v-8c0-2.216-1.784-4-4-4zm-582 18c-2.216 0-4 1.784-4 4v8c0 2.216 1.784 4 4 4h8c2.216 0 4-1.784 4-4v-8c0-2.216-1.784-4-4-4zm18 0c-2.216 0-4 1.784-4 4v8c0 2.216 1.784 4 4 4h8c2.216 0 4-1.784 4-4v-8c0-2.216-1.784-4-4-4zm18 0c-2.216 0-4 1.784-4 4v8c0 2.216 1.784 4 4 4h8c2.216 0 4-1.784 4-4v-8c0-2.216-1.784-4-4-4zm18 0c-2.216 0-4 1.784-4 4v8c0 2.216 1.784 4 4 4h8c2.216 0 4-1.784 4-4v-8c0-2.216-1.784-4-4-4zm34 0c-2.216 0-4 1.784-4 4v8c0 2.216 1.784 4 4 4h8c2.216 0 4-1.784 4-4v-8c0-2.216-1.784-4-4-4zm36 0c-2.216 0-4 1.784-4 4v8c0 2.216 1.784 4 4 4h8c2.216 0 4-1.784 4-4v-8c0-2.216-1.784-4-4-4zm52 0c-2.216 0-4 1.784-4 4v8c0 2.216 1.784 4 4 4h8c2.216 0 4-1.784 4-4v-8c0-2.216-1.784-4-4-4zm18 0c-2.216 0-4 1.784-4 4v8c0 2.216 1.784 4 4 4h8c2.216 0 4-1.784 4-4v-8c0-2.216-1.784-4-4-4zm70 0c-2.216 0-4 1.784-4 4v8c0 2.216 1.784 4 4 4h8c2.216 0 4-1.784 4-4v-8c0-2.216-1.784-4-4-4zm106 0c-2.216 0-4 1.784-4 4v8c0 2.216 1.784 4 4 4h8c2.216 0 4-1.784 4-4v-8c0-2.216-1.784-4-4-4zm106 0c-2.216 0-4 1.784-4 4v8c0 2.216 1.784 4 4 4h8c2.216 0 4-1.784 4-4v-8c0-2.216-1.784-4-4-4zm88 0c-2.216 0-4 1.784-4 4v8c0 2.216 1.784 4 4 4h8c2.216 0 4-1.784 4-4v-8c0-2.216-1.784-4-4-4zm18 0c-2.216 0-4 1.784-4 4v8c0 2.216 1.784 4 4 4h8c2.216 0 4-1.784 4-4v-8c0-2.216-1.784-4-4-4zm-582 18c-2.216 0-4 1.784-4 4v8c0 2.216 1.784 4 4 4h8c2.216 0 4-1.784 4-4v-8c0-2.216-1.784-4-4-4zm18 0c-2.216 0-4 1.784-4 4v8c0 2.216 1.784 4 4 4h8c2.216 0 4-1.784 4-4v-8c0-2.216-1.784-4-4-4zm18 0c-2.216 0-4 1.784-4 4v8c0 2.216 1.784 4 4 4h8c2.216 0 4-1.784 4-4v-8c0-2.216-1.784-4-4-4zm18 0c-2.216 0-4 1.784-4 4v8c0 2.216 1.784 4 4 4h8c2.216 0 4-1.784 4-4v-8c0-2.216-1.784-4-4-4zm34 0c-2.216 0-4 1.784-4 4v8c0 2.216 1.784 4 4 4h8c2.216 0 4-1.784 4-4v-8c0-2.216-1.784-4-4-4zm36 0c-2.216 0-4 1.784-4 4v8c0 2.216 1.784 4 4 4h8c2.216 0 4-1.784 4-4v-8c0-2.216-1.784-4-4-4zm52 0c-2.216 0-4 1.784-4 4v8c0 2.216 1.784 4 4 4h8c2.216 0 4-1.784 4-4v-8c0-2.216-1.784-4-4-4zm18 0c-2.216 0-4 1.784-4 4v8c0 2.216 1.784 4 4 4h8c2.216 0 4-1.784 4-4v-8c0-2.216-1.784-4-4-4zm70 0c-2.216 0-4 1.784-4 4v8c0 2.216 1.784 4 4 4h8c2.216 0 4-1.784 4-4v-8c0-2.216-1.784-4-4-4zm106 0c-2.216 0-4 1.784-4 4v8c0 2.216 1.784 4 4 4h8c2.216 0 4-1.784 4-4v-8c0-2.216-1.784-4-4-4zm106 0c-2.216 0-4 1.784-4 4v8c0 2.216 1.784 4 4 4h8c2.216 0 4-1.784 4-4v-8c0-2.216-1.784-4-4-4zm88 0c-2.216 0-4 1.784-4 4v8c0 2.216 1.784 4 4 4h8c2.216 0 4-1.784 4-4v-8c0-2.216-1.784-4-4-4zm18 0c-2.216 0-4 1.784-4 4v8c0 2.216 1.784 4 4 4h8c2.216 0 4-1.784 4-4v-8c0-2.216-1.784-4-4-4zm-670 36c-2.216 0-4 1.784-4 4v8c0 2.216 1.784 4 4 4h8c2.216 0 4-1.784 4-4v-8c0-2.216-1.784-4-4-4zm18 0c-2.216 0-4 1.784-4 4v8c0 2.216 1.784 4 4 4h8c2.216 0 4-1.784 4-4v-8c0-2.216-1.784-4-4-4zm70 0c-2.216 0-4 1.784-4 4v8c0 2.216 1.784 4 4 4h8c2.216 0 4-1.784 4-4v-8c0-2.216-1.784-4-4-4zm106 0c-2.216 0-4 1.784-4 4v8c0 2.216 1.784 4 4 4h8c2.216 0 4-1.784 4-4v-8c0-2.216-1.784-4-4-4zm106 0c-2.216 0-4 1.784-4 4v8c0 2.216 1.784 4 4 4h8c2.216 0 4-1.784 4-4v-8c0-2.216-1.784-4-4-4zm106 0c-2.216 0-4 1.784-4 4v8c0 2.216 1.784 4 4 4h8c2.216 0 4-1.784 4-4v-8c0-2.216-1.784-4-4-4zm122 0c-2.216 0-4 1.784-4 4v8c0 2.216 1.784 4 4 4h8c2.216 0 4-1.784 4-4v-8c0-2.216-1.784-4-4-4zm18 0c-2.216 0-4 1.784-4 4v8c0 2.216 1.784 4 4 4h8c2.216 0 4-1.784 4-4v-8c0-2.216-1.784-4-4-4zm18 0c-2.216 0-4 1.784-4 4v8c0 2.216 1.784 4 4 4h8c2.216 0 4-1.784 4-4v-8c0-2.216-1.784-4-4-4zm18 0c-2.216 0-4 1.784-4 4v8c0 2.216 1.784 4 4 4h8c2.216 0 4-1.784 4-4v-8c0-2.216-1.784-4-4-4zm34 0c-2.216 0-4 1.784-4 4v8c0 2.216 1.784 4 4 4h8c2.216 0 4-1.784 4-4v-8c0-2.216-1.784-4-4-4zm36 0c-2.216 0-4 1.784-4 4v8c0 2.216 1.784 4 4 4h8c2.216 0 4-1.784 4-4v-8c0-2.216-1.784-4-4-4zm-652 18c-2.216 0-4 1.784-4 4v8c0 2.216 1.784 4 4 4h8c2.216 0 4-1.784 4-4v-8c0-2.216-1.784-4-4-4zm18 0c-2.216 0-4 1.784-4 4v8c0 2.216 1.784 4 4 4h8c2.216 0 4-1.784 4-4v-8c0-2.216-1.784-4-4-4zm70 0c-2.216 0-4 1.784-4 4v8c0 2.216 1.784 4 4 4h8c2.216 0 4-1.784 4-4v-8c0-2.216-1.784-4-4-4zm106 0c-2.216 0-4 1.784-4 4v8c0 2.216 1.784 4 4 4h8c2.216 0 4-1.784 4-4v-8c0-2.216-1.784-4-4-4zm106 0c-2.216 0-4 1.784-4 4v8c0 2.216 1.784 4 4 4h8c2.216 0 4-1.784 4-4v-8c0-2.216-1.784-4-4-4zm106 0c-2.216 0-4 1.784-4 4v8c0 2.216 1.784 4 4 4h8c2.216 0 4-1.784 4-4v-8c0-2.216-1.784-4-4-4zm122 0c-2.216 0-4 1.784-4 4v8c0 2.216 1.784 4 4 4h8c2.216 0 4-1.784 4-4v-8c0-2.216-1.784-4-4-4zm18 0c-2.216 0-4 1.784-4 4v8c0 2.216 1.784 4 4 4h8c2.216 0 4-1.784 4-4v-8c0-2.216-1.784-4-4-4zm18 0c-2.216 0-4 1.784-4 4v8c0 2.216 1.784 4 4 4h8c2.216 0 4-1.784 4-4v-8c0-2.216-1.784-4-4-4zm18 0c-2.216 0-4 1.784-4 4v8c0 2.216 1.784 4 4 4h8c2.216 0 4-1.784 4-4v-8c0-2.216-1.784-4-4-4zm34 0c-2.216 0-4 1.784-4 4v8c0 2.216 1.784 4 4 4h8c2.216 0 4-1.784 4-4v-8c0-2.216-1.784-4-4-4zm36 0c-2.216 0-4 1.784-4 4v8c0 2.216 1.784 4 4 4h8c2.216 0 4-1.784 4-4v-8c0-2.216-1.784-4-4-4zm-652 18c-2.216 0-4 1.784-4 4v8c0 2.216 1.784 4 4 4h8c2.216 0 4-1.784 4-4v-8c0-2.216-1.784-4-4-4zm36 0c-2.216 0-4 1.784-4 4v8c0 2.216 1.784 4 4 4h8c2.216 0 4-1.784 4-4v-8c0-2.216-1.784-4-4-4zm52 0c-2.216 0-4 1.784-4 4v8c0 2.216 1.784 4 4 4h8c2.216 0 4-1.784 4-4v-8c0-2.216-1.784-4-4-4zm18 0c-2.216 0-4 1.784-4 4v8c0 2.216 1.784 4 4 4h8c2.216 0 4-1.784 4-4v-8c0-2.216-1.784-4-4-4zm70 0c-2.216 0-4 1.784-4 4v8c0 2.216 1.784 4 4 4h8c2.216 0 4-1.784 4-4v-8c0-2.216-1.784-4-4-4zm106 0c-2.216 0-4 1.784-4 4v8c0 2.216 1.784 4 4 4h8c2.216 0 4-1.784 4-4v-8c0-2.216-1.784-4-4-4zm106 0c-2.216 0-4 1.784-4 4v8c0 2.216 1.784 4 4 4h8c2.216 0 4-1.784 4-4v-8c0-2.216-1.784-4-4-4zm106 0c-2.216 0-4 1.784-4 4v8c0 2.216 1.784 4 4 4h8c2.216 0 4-1.784 4-4v-8c0-2.216-1.784-4-4-4zm122 0c-2.216 0-4 1.784-4 4v8c0 2.216 1.784 4 4 4h8c2.216 0 4-1.784 4-4v-8c0-2.216-1.784-4-4-4zm18 0c-2.216 0-4 1.784-4 4v8c0 2.216 1.784 4 4 4h8c2.216 0 4-1.784 4-4v-8c0-2.216-1.784-4-4-4zm18 0c-2.216 0-4 1.784-4 4v8c0 2.216 1.784 4 4 4h8c2.216 0 4-1.784 4-4v-8c0-2.216-1.784-4-4-4zm18 0c-2.216 0-4 1.784-4 4v8c0 2.216 1.784 4 4 4h8c2.216 0 4-1.784 4-4v-8c0-2.216-1.784-4-4-4zm-670 18c-2.216 0-4 1.784-4 4v8c0 2.216 1.784 4 4 4h8c2.216 0 4-1.784 4-4v-8c0-2.216-1.784-4-4-4zm36 0c-2.216 0-4 1.784-4 4v8c0 2.216 1.784 4 4 4h8c2.216 0 4-1.784 4-4v-8c0-2.216-1.784-4-4-4zm52 0c-2.216 0-4 1.784-4 4v8c0 2.216 1.784 4 4 4h8c2.216 0 4-1.784 4-4v-8c0-2.216-1.784-4-4-4zm18 0c-2.216 0-4 1.784-4 4v8c0 2.216 1.784 4 4 4h8c2.216 0 4-1.784 4-4v-8c0-2.216-1.784-4-4-4zm70 0c-2.216 0-4 1.784-4 4v8c0 2.216 1.784 4 4 4h8c2.216 0 4-1.784 4-4v-8c0-2.216-1.784-4-4-4zm106 0c-2.216 0-4 1.784-4 4v8c0 2.216 1.784 4 4 4h8c2.216 0 4-1.784 4-4v-8c0-2.216-1.784-4-4-4zm106 0c-2.216 0-4 1.784-4 4v8c0 2.216 1.784 4 4 4h8c2.216 0 4-1.784 4-4v-8c0-2.216-1.784-4-4-4zm106 0c-2.216 0-4 1.784-4 4v8c0 2.216 1.784 4 4 4h8c2.216 0 4-1.784 4-4v-8c0-2.216-1.784-4-4-4zm122 0c-2.216 0-4 1.784-4 4v8c0 2.216 1.784 4 4 4h8c2.216 0 4-1.784 4-4v-8c0-2.216-1.784-4-4-4zm18 0c-2.216 0-4 1.784-4 4v8c0 2.216 1.784 4 4 4h8c2.216 0 4-1.784 4-4v-8c0-2.216-1.784-4-4-4zm18 0c-2.216 0-4 1.784-4 4v8c0 2.216 1.784 4 4 4h8c2.216 0 4-1.784 4-4v-8c0-2.216-1.784-4-4-4zm18 0c-2.216 0-4 1.784-4 4v8c0 2.216 1.784 4 4 4h8c2.216 0 4-1.784 4-4v-8c0-2.216-1.784-4-4-4zm-652 36c-2.216 0-4 1.784-4 4v8c0 2.216 1.784 4 4 4h8c2.216 0 4-1.784 4-4v-8c0-2.216-1.784-4-4-4zm18 0c-2.216 0-4 1.784-4 4v8c0 2.216 1.784 4 4 4h8c2.216 0 4-1.784 4-4v-8c0-2.216-1.784-4-4-4zm18 0c-2.216 0-4 1.784-4 4v8c0 2.216 1.784 4 4 4h8c2.216 0 4-1.784 4-4v-8c0-2.216-1.784-4-4-4zm34 0c-2.216 0-4 1.784-4 4v8c0 2.216 1.784 4 4 4h8c2.216 0 4-1.784 4-4v-8c0-2.216-1.784-4-4-4zm36 0c-2.216 0-4 1.784-4 4v8c0 2.216 1.784 4 4 4h8c2.216 0 4-1.784 4-4v-8c0-2.216-1.784-4-4-4zm18 0c-2.216 0-4 1.784-4 4v8c0 2.216 1.784 4 4 4h8c2.216 0 4-1.784 4-4v-8c0-2.216-1.784-4-4-4zm34 0c-2.216 0-4 1.784-4 4v8c0 2.216 1.784 4 4 4h8c2.216 0 4-1.784 4-4v-8c0-2.216-1.784-4-4-4zm18 0c-2.216 0-4 1.784-4 4v8c0 2.216 1.784 4 4 4h8c2.216 0 4-1.784 4-4v-8c0-2.216-1.784-4-4-4zm36 0c-2.216 0-4 1.784-4 4v8c0 2.216 1.784 4 4 4h8c2.216 0 4-1.784 4-4v-8c0-2.216-1.784-4-4-4zm34 0c-2.216 0-4 1.784-4 4v8c0 2.216 1.784 4 4 4h8c2.216 0 4-1.784 4-4v-8c0-2.216-1.784-4-4-4zm18 0c-2.216 0-4 1.784-4 4v8c0 2.216 1.784 4 4 4h8c2.216 0 4-1.784 4-4v-8c0-2.216-1.784-4-4-4zm18 0c-2.216 0-4 1.784-4 4v8c0 2.216 1.784 4 4 4h8c2.216 0 4-1.784 4-4v-8c0-2.216-1.784-4-4-4zm88 0c-2.216 0-4 1.784-4 4v8c0 2.216 1.784 4 4 4h8c2.216 0 4-1.784 4-4v-8c0-2.216-1.784-4-4-4zm18 0c-2.216 0-4 1.784-4 4v8c0 2.216 1.784 4 4 4h8c2.216 0 4-1.784 4-4v-8c0-2.216-1.784-4-4-4zm52 0c-2.216 0-4 1.784-4 4v8c0 2.216 1.784 4 4 4h8c2.216 0 4-1.784 4-4v-8c0-2.216-1.784-4-4-4zm36 0c-2.216 0-4 1.784-4 4v8c0 2.216 1.784 4 4 4h8c2.216 0 4-1.784 4-4v-8c0-2.216-1.784-4-4-4zm52 0c-2.216 0-4 1.784-4 4v8c0 2.216 1.784 4 4 4h8c2.216 0 4-1.784 4-4v-8c0-2.216-1.784-4-4-4zm18 0c-2.216 0-4 1.784-4 4v8c0 2.216 1.784 4 4 4h8c2.216 0 4-1.784 4-4v-8c0-2.216-1.784-4-4-4zm52 0c-2.216 0-4 1.784-4 4v8c0 2.216 1.784 4 4 4h8c2.216 0 4-1.784 4-4v-8c0-2.216-1.784-4-4-4zm54 0c-2.216 0-4 1.784-4 4v8c0 2.216 1.784 4 4 4h8c2.216 0 4-1.784 4-4v-8c0-2.216-1.784-4-4-4zm-652 18c-2.216 0-4 1.784-4 4v8c0 2.216 1.784 4 4 4h8c2.216 0 4-1.784 4-4v-8c0-2.216-1.784-4-4-4zm18 0c-2.216 0-4 1.784-4 4v8c0 2.216 1.784 4 4 4h8c2.216 0 4-1.784 4-4v-8c0-2.216-1.784-4-4-4zm18 0c-2.216 0-4 1.784-4 4v8c0 2.216 1.784 4 4 4h8c2.216 0 4-1.784 4-4v-8c0-2.216-1.784-4-4-4zm34 0c-2.216 0-4 1.784-4 4v8c0 2.216 1.784 4 4 4h8c2.216 0 4-1.784 4-4v-8c0-2.216-1.784-4-4-4zm36 0c-2.216 0-4 1.784-4 4v8c0 2.216 1.784 4 4 4h8c2.216 0 4-1.784 4-4v-8c0-2.216-1.784-4-4-4zm18 0c-2.216 0-4 1.784-4 4v8c0 2.216 1.784 4 4 4h8c2.216 0 4-1.784 4-4v-8c0-2.216-1.784-4-4-4zm34 0c-2.216 0-4 1.784-4 4v8c0 2.216 1.784 4 4 4h8c2.216 0 4-1.784 4-4v-8c0-2.216-1.784-4-4-4zm18 0c-2.216 0-4 1.784-4 4v8c0 2.216 1.784 4 4 4h8c2.216 0 4-1.784 4-4v-8c0-2.216-1.784-4-4-4zm36 0c-2.216 0-4 1.784-4 4v8c0 2.216 1.784 4 4 4h8c2.216 0 4-1.784 4-4v-8c0-2.216-1.784-4-4-4zm34 0c-2.216 0-4 1.784-4 4v8c0 2.216 1.784 4 4 4h8c2.216 0 4-1.784 4-4v-8c0-2.216-1.784-4-4-4zm18 0c-2.216 0-4 1.784-4 4v8c0 2.216 1.784 4 4 4h8c2.216 0 4-1.784 4-4v-8c0-2.216-1.784-4-4-4zm18 0c-2.216 0-4 1.784-4 4v8c0 2.216 1.784 4 4 4h8c2.216 0 4-1.784 4-4v-8c0-2.216-1.784-4-4-4zm88 0c-2.216 0-4 1.784-4 4v8c0 2.216 1.784 4 4 4h8c2.216 0 4-1.784 4-4v-8c0-2.216-1.784-4-4-4zm18 0c-2.216 0-4 1.784-4 4v8c0 2.216 1.784 4 4 4h8c2.216 0 4-1.784 4-4v-8c0-2.216-1.784-4-4-4zm52 0c-2.216 0-4 1.784-4 4v8c0 2.216 1.784 4 4 4h8c2.216 0 4-1.784 4-4v-8c0-2.216-1.784-4-4-4zm36 0c-2.216 0-4 1.784-4 4v8c0 2.216 1.784 4 4 4h8c2.216 0 4-1.784 4-4v-8c0-2.216-1.784-4-4-4zm52 0c-2.216 0-4 1.784-4 4v8c0 2.216 1.784 4 4 4h8c2.216 0 4-1.784 4-4v-8c0-2.216-1.784-4-4-4zm18 0c-2.216 0-4 1.784-4 4v8c0 2.216 1.784 4 4 4h8c2.216 0 4-1.784 4-4v-8c0-2.216-1.784-4-4-4zm52 0c-2.216 0-4 1.784-4 4v8c0 2.216 1.784 4 4 4h8c2.216 0 4-1.784 4-4v-8c0-2.216-1.784-4-4-4zm54 0c-2.216 0-4 1.784-4 4v8c0 2.216 1.784 4 4 4h8c2.216 0 4-1.784 4-4v-8c0-2.216-1.784-4-4-4zm-670 18c-2.216 0-4 1.784-4 4v8c0 2.216 1.784 4 4 4h8c2.216 0 4-1.784 4-4v-8c0-2.216-1.784-4-4-4zm36 0c-2.216 0-4 1.784-4 4v8c0 2.216 1.784 4 4 4h8c2.216 0 4-1.784 4-4v-8c0-2.216-1.784-4-4-4zm52 0c-2.216 0-4 1.784-4 4v8c0 2.216 1.784 4 4 4h8c2.216 0 4-1.784 4-4v-8c0-2.216-1.784-4-4-4zm18 0c-2.216 0-4 1.784-4 4v8c0 2.216 1.784 4 4 4h8c2.216 0 4-1.784 4-4v-8c0-2.216-1.784-4-4-4zm70 0c-2.216 0-4 1.784-4 4v8c0 2.216 1.784 4 4 4h8c2.216 0 4-1.784 4-4v-8c0-2.216-1.784-4-4-4zm106 0c-2.216 0-4 1.784-4 4v8c0 2.216 1.784 4 4 4h8c2.216 0 4-1.784 4-4v-8c0-2.216-1.784-4-4-4zm106 0c-2.216 0-4 1.784-4 4v8c0 2.216 1.784 4 4 4h8c2.216 0 4-1.784 4-4v-8c0-2.216-1.784-4-4-4zm106 0c-2.216 0-4 1.784-4 4v8c0 2.216 1.784 4 4 4h8c2.216 0 4-1.784 4-4v-8c0-2.216-1.784-4-4-4zm122 0c-2.216 0-4 1.784-4 4v8c0 2.216 1.784 4 4 4h8c2.216 0 4-1.784 4-4v-8c0-2.216-1.784-4-4-4zm18 0c-2.216 0-4 1.784-4 4v8c0 2.216 1.784 4 4 4h8c2.216 0 4-1.784 4-4v-8c0-2.216-1.784-4-4-4zm18 0c-2.216 0-4 1.784-4 4v8c0 2.216 1.784 4 4 4h8c2.216 0 4-1.784 4-4v-8c0-2.216-1.784-4-4-4zm18 0c-2.216 0-4 1.784-4 4v8c0 2.216 1.784 4 4 4h8c2.216 0 4-1.784 4-4v-8c0-2.216-1.784-4-4-4zm-670 18c-2.216 0-4 1.784-4 4v8c0 2.216 1.784 4 4 4h8c2.216 0 4-1.784 4-4v-8c0-2.216-1.784-4-4-4zm36 0c-2.216 0-4 1.784-4 4v8c0 2.216 1.784 4 4 4h8c2.216 0 4-1.784 4-4v-8c0-2.216-1.784-4-4-4zm52 0c-2.216 0-4 1.784-4 4v8c0 2.216 1.784 4 4 4h8c2.216 0 4-1.784 4-4v-8c0-2.216-1.784-4-4-4zm18 0c-2.216 0-4 1.784-4 4v8c0 2.216 1.784 4 4 4h8c2.216 0 4-1.784 4-4v-8c0-2.216-1.784-4-4-4zm70 0c-2.216 0-4 1.784-4 4v8c0 2.216 1.784 4 4 4h8c2.216 0 4-1.784 4-4v-8c0-2.216-1.784-4-4-4zm106 0c-2.216 0-4 1.784-4 4v8c0 2.216 1.784 4 4 4h8c2.216 0 4-1.784 4-4v-8c0-2.216-1.784-4-4-4zm106 0c-2.216 0-4 1.784-4 4v8c0 2.216 1.784 4 4 4h8c2.216 0 4-1.784 4-4v-8c0-2.216-1.784-4-4-4zm106 0c-2.216 0-4 1.784-4 4v8c0 2.216 1.784 4 4 4h8c2.216 0 4-1.784 4-4v-8c0-2.216-1.784-4-4-4zm122 0c-2.216 0-4 1.784-4 4v8c0 2.216 1.784 4 4 4h8c2.216 0 4-1.784 4-4v-8c0-2.216-1.784-4-4-4zm18 0c-2.216 0-4 1.784-4 4v8c0 2.216 1.784 4 4 4h8c2.216 0 4-1.784 4-4v-8c0-2.216-1.784-4-4-4zm18 0c-2.216 0-4 1.784-4 4v8c0 2.216 1.784 4 4 4h8c2.216 0 4-1.784 4-4v-8c0-2.216-1.784-4-4-4zm18 0c-2.216 0-4 1.784-4 4v8c0 2.216 1.784 4 4 4h8c2.216 0 4-1.784 4-4v-8c0-2.216-1.784-4-4-4zm-652 35c-2.216 0-4 1.784-4 4v8c0 2.216 1.784 4 4 4h8c2.216 0 4-1.784 4-4v-8c0-2.216-1.784-4-4-4zm18 0c-2.216 0-4 1.784-4 4v8c0 2.216 1.784 4 4 4h8c2.216 0 4-1.784 4-4v-8c0-2.216-1.784-4-4-4zm18 0c-2.216 0-4 1.784-4 4v8c0 2.216 1.784 4 4 4h8c2.216 0 4-1.784 4-4v-8c0-2.216-1.784-4-4-4zm34 0c-2.216 0-4 1.784-4 4v8c0 2.216 1.784 4 4 4h8c2.216 0 4-1.784 4-4v-8c0-2.216-1.784-4-4-4zm36 0c-2.216 0-4 1.784-4 4v8c0 2.216 1.784 4 4 4h8c2.216 0 4-1.784 4-4v-8c0-2.216-1.784-4-4-4zm18 0c-2.216 0-4 1.784-4 4v8c0 2.216 1.784 4 4 4h8c2.216 0 4-1.784 4-4v-8c0-2.216-1.784-4-4-4zm34 0c-2.216 0-4 1.784-4 4v8c0 2.216 1.784 4 4 4h8c2.216 0 4-1.784 4-4v-8c0-2.216-1.784-4-4-4zm18 0c-2.216 0-4 1.784-4 4v8c0 2.216 1.784 4 4 4h8c2.216 0 4-1.784 4-4v-8c0-2.216-1.784-4-4-4zm36 0c-2.216 0-4 1.784-4 4v8c0 2.216 1.784 4 4 4h8c2.216 0 4-1.784 4-4v-8c0-2.216-1.784-4-4-4zm34 0c-2.216 0-4 1.784-4 4v8c0 2.216 1.784 4 4 4h8c2.216 0 4-1.784 4-4v-8c0-2.216-1.784-4-4-4zm18 0c-2.216 0-4 1.784-4 4v8c0 2.216 1.784 4 4 4h8c2.216 0 4-1.784 4-4v-8c0-2.216-1.784-4-4-4zm18 0c-2.216 0-4 1.784-4 4v8c0 2.216 1.784 4 4 4h8c2.216 0 4-1.784 4-4v-8c0-2.216-1.784-4-4-4zm88 0c-2.216 0-4 1.784-4 4v8c0 2.216 1.784 4 4 4h8c2.216 0 4-1.784 4-4v-8c0-2.216-1.784-4-4-4zm18 0c-2.216 0-4 1.784-4 4v8c0 2.216 1.784 4 4 4h8c2.216 0 4-1.784 4-4v-8c0-2.216-1.784-4-4-4zm52 0c-2.216 0-4 1.784-4 4v8c0 2.216 1.784 4 4 4h8c2.216 0 4-1.784 4-4v-8c0-2.216-1.784-4-4-4zm36 0c-2.216 0-4 1.784-4 4v8c0 2.216 1.784 4 4 4h8c2.216 0 4-1.784 4-4v-8c0-2.216-1.784-4-4-4zm52 0c-2.216 0-4 1.784-4 4v8c0 2.216 1.784 4 4 4h8c2.216 0 4-1.784 4-4v-8c0-2.216-1.784-4-4-4zm18 0c-2.216 0-4 1.784-4 4v8c0 2.216 1.784 4 4 4h8c2.216 0 4-1.784 4-4v-8c0-2.216-1.784-4-4-4zm52 0c-2.216 0-4 1.784-4 4v8c0 2.216 1.784 4 4 4h8c2.216 0 4-1.784 4-4v-8c0-2.216-1.784-4-4-4zm54 0c-2.216 0-4 1.784-4 4v8c0 2.216 1.784 4 4 4h8c2.216 0 4-1.784 4-4v-8c0-2.216-1.784-4-4-4zm-652 18c-2.216 0-4 1.784-4 4v8c0 2.216 1.784 4 4 4h8c2.216 0 4-1.784 4-4v-8c0-2.216-1.784-4-4-4zm18 0c-2.216 0-4 1.784-4 4v8c0 2.216 1.784 4 4 4h8c2.216 0 4-1.784 4-4v-8c0-2.216-1.784-4-4-4zm18 0c-2.216 0-4 1.784-4 4v8c0 2.216 1.784 4 4 4h8c2.216 0 4-1.784 4-4v-8c0-2.216-1.784-4-4-4zm34 0c-2.216 0-4 1.784-4 4v8c0 2.216 1.784 4 4 4h8c2.216 0 4-1.784 4-4v-8c0-2.216-1.784-4-4-4zm36 0c-2.216 0-4 1.784-4 4v8c0 2.216 1.784 4 4 4h8c2.216 0 4-1.784 4-4v-8c0-2.216-1.784-4-4-4zm18 0c-2.216 0-4 1.784-4 4v8c0 2.216 1.784 4 4 4h8c2.216 0 4-1.784 4-4v-8c0-2.216-1.784-4-4-4zm34 0c-2.216 0-4 1.784-4 4v8c0 2.216 1.784 4 4 4h8c2.216 0 4-1.784 4-4v-8c0-2.216-1.784-4-4-4zm18 0c-2.216 0-4 1.784-4 4v8c0 2.216 1.784 4 4 4h8c2.216 0 4-1.784 4-4v-8c0-2.216-1.784-4-4-4zm36 0c-2.216 0-4 1.784-4 4v8c0 2.216 1.784 4 4 4h8c2.216 0 4-1.784 4-4v-8c0-2.216-1.784-4-4-4zm34 0c-2.216 0-4 1.784-4 4v8c0 2.216 1.784 4 4 4h8c2.216 0 4-1.784 4-4v-8c0-2.216-1.784-4-4-4zm18 0c-2.216 0-4 1.784-4 4v8c0 2.216 1.784 4 4 4h8c2.216 0 4-1.784 4-4v-8c0-2.216-1.784-4-4-4zm18 0c-2.216 0-4 1.784-4 4v8c0 2.216 1.784 4 4 4h8c2.216 0 4-1.784 4-4v-8c0-2.216-1.784-4-4-4zm88 0c-2.216 0-4 1.784-4 4v8c0 2.216 1.784 4 4 4h8c2.216 0 4-1.784 4-4v-8c0-2.216-1.784-4-4-4zm18 0c-2.216 0-4 1.784-4 4v8c0 2.216 1.784 4 4 4h8c2.216 0 4-1.784 4-4v-8c0-2.216-1.784-4-4-4zm52 0c-2.216 0-4 1.784-4 4v8c0 2.216 1.784 4 4 4h8c2.216 0 4-1.784 4-4v-8c0-2.216-1.784-4-4-4zm36 0c-2.216 0-4 1.784-4 4v8c0 2.216 1.784 4 4 4h8c2.216 0 4-1.784 4-4v-8c0-2.216-1.784-4-4-4zm52 0c-2.216 0-4 1.784-4 4v8c0 2.216 1.784 4 4 4h8c2.216 0 4-1.784 4-4v-8c0-2.216-1.784-4-4-4zm18 0c-2.216 0-4 1.784-4 4v8c0 2.216 1.784 4 4 4h8c2.216 0 4-1.784 4-4v-8c0-2.216-1.784-4-4-4zm52 0c-2.216 0-4 1.784-4 4v8c0 2.216 1.784 4 4 4h8c2.216 0 4-1.784 4-4v-8c0-2.216-1.784-4-4-4zm54 0c-2.216 0-4 1.784-4 4v8c0 2.216 1.784 4 4 4h8c2.216 0 4-1.784 4-4v-8c0-2.216-1.784-4-4-4zm-652 18c-2.216 0-4 1.784-4 4v8c0 2.216 1.784 4 4 4h8c2.216 0 4-1.784 4-4v-8c0-2.216-1.784-4-4-4zm18 0c-2.216 0-4 1.784-4 4v8c0 2.216 1.784 4 4 4h8c2.216 0 4-1.784 4-4v-8c0-2.216-1.784-4-4-4zm18 0c-2.216 0-4 1.784-4 4v8c0 2.216 1.784 4 4 4h8c2.216 0 4-1.784 4-4v-8c0-2.216-1.784-4-4-4zm34 0c-2.216 0-4 1.784-4 4v8c0 2.216 1.784 4 4 4h8c2.216 0 4-1.784 4-4v-8c0-2.216-1.784-4-4-4zm36 0c-2.216 0-4 1.784-4 4v8c0 2.216 1.784 4 4 4h8c2.216 0 4-1.784 4-4v-8c0-2.216-1.784-4-4-4zm18 0c-2.216 0-4 1.784-4 4v8c0 2.216 1.784 4 4 4h8c2.216 0 4-1.784 4-4v-8c0-2.216-1.784-4-4-4zm34 0c-2.216 0-4 1.784-4 4v8c0 2.216 1.784 4 4 4h8c2.216 0 4-1.784 4-4v-8c0-2.216-1.784-4-4-4zm18 0c-2.216 0-4 1.784-4 4v8c0 2.216 1.784 4 4 4h8c2.216 0 4-1.784 4-4v-8c0-2.216-1.784-4-4-4zm36 0c-2.216 0-4 1.784-4 4v8c0 2.216 1.784 4 4 4h8c2.216 0 4-1.784 4-4v-8c0-2.216-1.784-4-4-4zm34 0c-2.216 0-4 1.784-4 4v8c0 2.216 1.784 4 4 4h8c2.216 0 4-1.784 4-4v-8c0-2.216-1.784-4-4-4zm18 0c-2.216 0-4 1.784-4 4v8c0 2.216 1.784 4 4 4h8c2.216 0 4-1.784 4-4v-8c0-2.216-1.784-4-4-4zm18 0c-2.216 0-4 1.784-4 4v8c0 2.216 1.784 4 4 4h8c2.216 0 4-1.784 4-4v-8c0-2.216-1.784-4-4-4zm88 0c-2.216 0-4 1.784-4 4v8c0 2.216 1.784 4 4 4h8c2.216 0 4-1.784 4-4v-8c0-2.216-1.784-4-4-4zm18 0c-2.216 0-4 1.784-4 4v8c0 2.216 1.784 4 4 4h8c2.216 0 4-1.784 4-4v-8c0-2.216-1.784-4-4-4zm52 0c-2.216 0-4 1.784-4 4v8c0 2.216 1.784 4 4 4h8c2.216 0 4-1.784 4-4v-8c0-2.216-1.784-4-4-4zm36 0c-2.216 0-4 1.784-4 4v8c0 2.216 1.784 4 4 4h8c2.216 0 4-1.784 4-4v-8c0-2.216-1.784-4-4-4zm52 0c-2.216 0-4 1.784-4 4v8c0 2.216 1.784 4 4 4h8c2.216 0 4-1.784 4-4v-8c0-2.216-1.784-4-4-4zm18 0c-2.216 0-4 1.784-4 4v8c0 2.216 1.784 4 4 4h8c2.216 0 4-1.784 4-4v-8c0-2.216-1.784-4-4-4zm52 0c-2.216 0-4 1.784-4 4v8c0 2.216 1.784 4 4 4h8c2.216 0 4-1.784 4-4v-8c0-2.216-1.784-4-4-4zm54 0c-2.216 0-4 1.784-4 4v8c0 2.216 1.784 4 4 4h8c2.216 0 4-1.784 4-4v-8c0-2.216-1.784-4-4-4zm-652 18c-2.216 0-4 1.784-4 4v8c0 2.216 1.784 4 4 4h8c2.216 0 4-1.784 4-4v-8c0-2.216-1.784-4-4-4zm18 0c-2.216 0-4 1.784-4 4v8c0 2.216 1.784 4 4 4h8c2.216 0 4-1.784 4-4v-8c0-2.216-1.784-4-4-4zm18 0c-2.216 0-4 1.784-4 4v8c0 2.216 1.784 4 4 4h8c2.216 0 4-1.784 4-4v-8c0-2.216-1.784-4-4-4zm34 0c-2.216 0-4 1.784-4 4v8c0 2.216 1.784 4 4 4h8c2.216 0 4-1.784 4-4v-8c0-2.216-1.784-4-4-4zm36 0c-2.216 0-4 1.784-4 4v8c0 2.216 1.784 4 4 4h8c2.216 0 4-1.784 4-4v-8c0-2.216-1.784-4-4-4zm18 0c-2.216 0-4 1.784-4 4v8c0 2.216 1.784 4 4 4h8c2.216 0 4-1.784 4-4v-8c0-2.216-1.784-4-4-4zm34 0c-2.216 0-4 1.784-4 4v8c0 2.216 1.784 4 4 4h8c2.216 0 4-1.784 4-4v-8c0-2.216-1.784-4-4-4zm18 0c-2.216 0-4 1.784-4 4v8c0 2.216 1.784 4 4 4h8c2.216 0 4-1.784 4-4v-8c0-2.216-1.784-4-4-4zm36 0c-2.216 0-4 1.784-4 4v8c0 2.216 1.784 4 4 4h8c2.216 0 4-1.784 4-4v-8c0-2.216-1.784-4-4-4zm34 0c-2.216 0-4 1.784-4 4v8c0 2.216 1.784 4 4 4h8c2.216 0 4-1.784 4-4v-8c0-2.216-1.784-4-4-4zm18 0c-2.216 0-4 1.784-4 4v8c0 2.216 1.784 4 4 4h8c2.216 0 4-1.784 4-4v-8c0-2.216-1.784-4-4-4zm18 0c-2.216 0-4 1.784-4 4v8c0 2.216 1.784 4 4 4h8c2.216 0 4-1.784 4-4v-8c0-2.216-1.784-4-4-4zm88 0c-2.216 0-4 1.784-4 4v8c0 2.216 1.784 4 4 4h8c2.216 0 4-1.784 4-4v-8c0-2.216-1.784-4-4-4zm18 0c-2.216 0-4 1.784-4 4v8c0 2.216 1.784 4 4 4h8c2.216 0 4-1.784 4-4v-8c0-2.216-1.784-4-4-4zm52 0c-2.216 0-4 1.784-4 4v8c0 2.216 1.784 4 4 4h8c2.216 0 4-1.784 4-4v-8c0-2.216-1.784-4-4-4zm36 0c-2.216 0-4 1.784-4 4v8c0 2.216 1.784 4 4 4h8c2.216 0 4-1.784 4-4v-8c0-2.216-1.784-4-4-4zm52 0c-2.216 0-4 1.784-4 4v8c0 2.216 1.784 4 4 4h8c2.216 0 4-1.784 4-4v-8c0-2.216-1.784-4-4-4zm18 0c-2.216 0-4 1.784-4 4v8c0 2.216 1.784 4 4 4h8c2.216 0 4-1.784 4-4v-8c0-2.216-1.784-4-4-4zm52 0c-2.216 0-4 1.784-4 4v8c0 2.216 1.784 4 4 4h8c2.216 0 4-1.784 4-4v-8c0-2.216-1.784-4-4-4zm54 0c-2.216 0-4 1.784-4 4v8c0 2.216 1.784 4 4 4h8c2.216 0 4-1.784 4-4v-8c0-2.216-1.784-4-4-4z" fill="url(#linearGradient1279)"/></g><path d="m481.438 297.029c27.7674-1.65751 31.7513-42.6593 34.3102-66.2166" fill="none" marker-end="url(#RoundedArrow)" stroke="black" stroke-width="1.5"/><text x="384.06952" y="297.02859" fill="black" font-family="'Source Serif 4'" font-size="24px" font-style="italic" font-weight="500"><tspan fill="black" font-family="'Source Serif 4'" font-style="italic" font-weight="normal">a column</tspan></text><text x="271.34106" y="371.63959" fill="black" font-family="'Source Serif 4'" font-size="28px" font-weight="700"><tspan fill="black" font-family="'Source Serif 4'" font-size="28px" font-weight="500">Granular Sparsity</tspan></text><path d="m660.962 332.036c20.8623 1.69536 30.3886 6.42545 31.8781 53.8506" fill="none" marker-end="url(#RoundedArrow)" stroke="black" stroke-width="1.5"/><text x="573.05237" y="338.88882" fill="black" font-family="'Source Serif 4'" font-size="24px" font-style="italic" font-weight="500"><tspan fill="black" font-family="'Source Serif 4'" font-style="italic" font-weight="normal">a stripe</tspan></text><text x="289.69193" y="710" fill="black" font-family="'Source Serif 4'" font-size="26px" font-weight="500"><tspan x="289.69193" y="710" fill="black" font-family="'Source Serif 4'" font-weight="normal">and many more</tspan></text></svg>
